<svg width="344" height="14" viewBox="0 0 344 14" fill="none" xmlns="http://www.w3.org/2000/svg">
<g clip-path="url(#clip0_395_2999)">
<path d="M249.081 0.142458C249.081 0.261203 248.706 0.368072 247.988 0.391821C247.453 0.404353 246.941 0.478949 246.521 0.605562C246.521 0.712432 245.959 0.700557 245.335 0.605562C244.711 0.510566 244.367 0.451194 244.243 0.605562C244.118 0.75993 243.369 0.843051 243.369 0.605562C243.369 0.368073 242.526 0.415569 240.435 0.427443C238.343 0.439318 237.563 0.427439 237.625 0.617431C237.688 0.807422 236.658 0.854919 236.377 0.617431C236.096 0.379941 236.096 0.474936 235.846 0.617431C235.597 0.759924 233.1 0.831173 233.1 0.712428C232.232 0.657149 231.356 0.621468 230.478 0.605562C229.431 0.588721 228.388 0.545081 227.356 0.474943C227.075 0.474943 226.857 0.474943 226.857 0.474943C226.857 0.474943 224.297 0.474943 224.016 0.344324C222.885 0.332587 221.759 0.40938 220.708 0.569941C217.587 0.914301 216.182 0.854922 216.619 0.415567C216.619 0.284948 216.619 0.178082 216.369 0.178082C216.12 0.178082 216.026 0.249326 216.182 0.332447C216.338 0.415568 216.182 0.486811 215.776 0.486811C215.624 0.483444 215.474 0.502548 215.358 0.540145C215.241 0.577741 215.168 0.630945 215.152 0.688684C215.152 0.819303 215.152 0.831178 214.84 0.688684C214.419 0.558658 213.882 0.494922 213.342 0.510566C212.686 0.510566 211.937 0.510566 211.719 0.510566C211.251 0.497188 210.781 0.497188 210.314 0.510566C209.377 0.510566 209.346 0.510565 210.127 0.759928C210.907 1.00929 210.688 0.985545 210.439 0.985545C209.927 0.912856 209.489 0.779697 209.19 0.605563L208.41 0.213704L207.973 0.688685C207.536 1.15179 206.974 1.27053 206.506 0.985545C206.428 0.942169 206.327 0.905836 206.208 0.879152C206.089 0.852467 205.956 0.836083 205.819 0.831172C205.538 0.831172 205.507 0.831176 205.819 1.02117C206.131 1.21116 205.975 1.22304 205.226 1.24679C204.477 1.27053 204.352 1.24678 204.727 1.13991C205.101 1.03304 205.039 0.985543 204.29 0.92617C203.269 0.830319 202.218 0.790337 201.168 0.807428C200.294 0.807428 200.263 0.807428 200.763 1.10429C201.262 1.40115 201.262 1.36553 200.232 1.10429C199.202 0.843051 195.675 0.72431 195.956 1.03305C195.956 1.15179 195.956 1.23491 195.613 1.23491C195.269 1.23491 195.051 1.16366 195.051 1.08053C195.051 0.997414 194.863 1.00929 194.583 1.08053C194.302 1.15178 193.053 1.31802 193.053 1.08053C193.054 1.0519 193.038 1.02356 193.008 0.997378C192.977 0.971199 192.932 0.94779 192.876 0.928698C192.82 0.909606 192.754 0.895269 192.682 0.886644C192.611 0.878019 192.535 0.875302 192.46 0.878672C192.117 0.878672 191.898 0.878678 192.023 0.949924C192.148 1.02117 192.023 1.12804 191.617 1.23491C191.211 1.34178 189.432 1.3774 189.432 1.09241C189.432 0.985542 189.245 0.997417 188.839 1.09241C188.434 1.18741 188.215 1.23491 187.997 1.09241C187.778 0.949919 187.56 0.985542 187.185 1.09241C186.81 1.19928 186.498 1.23491 186.311 1.18741C185.567 1.13935 184.808 1.13935 184.064 1.18741C183.002 1.18741 182.035 1.18741 181.941 1.18741C181.848 1.18741 181.442 1.18741 181.13 1.18741C180.817 1.18741 180.349 1.31803 179.6 1.11617C178.851 0.914301 178.539 0.926175 178.414 0.985547C177.324 1.09059 176.194 1.12272 175.074 1.08054C172.39 1.08054 171.766 1.08054 171.017 1.36553C170.267 1.65052 170.111 1.62677 170.111 1.54365C170.111 1.46053 169.674 1.41303 169.175 1.41303C168.676 1.41303 168.27 1.4724 168.395 1.86425C168.52 2.25611 168.395 2.27987 168.083 2.05425C167.944 1.97896 167.762 1.91643 167.552 1.87123C167.341 1.82603 167.106 1.79931 166.865 1.79301C166.223 1.74817 165.633 1.62773 165.18 1.44865C164.368 1.13991 164.275 1.12804 164.15 1.36553C164.025 1.60302 163.463 1.72176 163.057 1.48427C162.651 1.24678 160.56 1.29428 160.342 1.48427C160.123 1.67426 160.03 1.62677 159.499 1.48427C158.968 1.34178 158.843 1.30616 158.843 1.48427C158.843 1.66239 158.656 1.70989 158.438 1.65052C158.219 1.59114 158.032 1.65052 158.032 1.79301C158.032 1.9355 157.689 2.04237 157.189 2.04237C156.69 2.04237 156.44 1.95925 156.596 1.74551C156.67 1.67672 156.686 1.6008 156.642 1.52839C156.597 1.45599 156.494 1.39073 156.346 1.34178C156.065 1.25866 155.972 1.2824 156.159 1.34178C156.346 1.40115 155.972 1.48427 155.004 1.4249C153.412 1.3299 153.288 1.4249 154.224 1.75739C155.16 2.08987 154.817 1.99488 154.224 1.99488C153.631 1.99488 153.007 1.99487 153.131 1.72176C153.256 1.44865 152.882 1.5199 152.289 1.5199C151.963 1.52173 151.648 1.56474 151.394 1.64213C151.14 1.71953 150.96 1.82692 150.884 1.94738C150.541 2.23236 150.447 2.26799 150.541 2.04237C150.634 1.81676 150.541 1.73363 147.201 1.76926C145.297 1.76926 143.58 1.76926 143.393 1.76926C143.206 1.76926 143.393 1.888 143.393 2.01862C143.393 2.14924 143.768 2.30361 143.643 2.36298C143.518 2.42235 143.393 2.36298 143.393 2.26798C143.393 2.17299 143.206 2.11362 142.987 2.16112C142.912 2.18869 142.811 2.2041 142.706 2.2041C142.602 2.2041 142.501 2.18869 142.425 2.16112C142.113 1.983 140.303 2.04237 139.616 2.25612C138.929 2.46986 138.898 2.43423 138.711 2.41048C138.245 2.41399 137.783 2.44196 137.338 2.4936C136.414 2.57452 135.474 2.62616 134.528 2.64797C133.68 2.65856 132.839 2.71452 132.031 2.81422C131.532 2.88546 131.313 2.81421 131.313 2.69546C131.343 2.61314 131.423 2.53465 131.548 2.4665C131.673 2.39836 131.838 2.34252 132.031 2.30361C132.656 2.14925 132.656 2.13737 132.031 2.1255C131.848 2.12445 131.666 2.13881 131.499 2.16754C131.332 2.19627 131.183 2.23868 131.064 2.29174C130.964 2.33727 130.828 2.36975 130.677 2.38465C130.526 2.39955 130.367 2.39613 130.221 2.37486C129.94 2.37486 129.753 2.37486 129.878 2.37486C130.003 2.37486 128.848 2.73109 128.255 2.52922C127.662 2.32736 127.693 2.41048 127.693 2.52922C127.693 2.64797 126.101 2.73109 125.851 2.52922C125.601 2.32736 125.164 2.35111 123.573 2.4461C122.767 2.50076 121.943 2.50076 121.138 2.4461C121.083 2.43199 121.019 2.42289 120.953 2.41949C120.887 2.4161 120.82 2.41851 120.757 2.42653C120.693 2.43456 120.636 2.44798 120.588 2.46578C120.541 2.48358 120.505 2.50528 120.483 2.52922C120.264 2.65984 119.889 2.65984 119.14 2.52922C118.391 2.3986 118.11 2.42236 118.298 2.60048C118.485 2.77859 118.298 2.80234 117.268 2.7311C116.238 2.65985 116.019 2.73109 116.019 2.90921C116.019 3.08732 116.019 3.13482 115.457 2.99233C114.895 2.84983 114.708 2.89733 114.084 3.20607C113.46 3.5148 113.147 3.52668 112.991 3.43168C112.965 3.41209 112.929 3.39469 112.884 3.38048C112.84 3.36627 112.789 3.35555 112.734 3.34892C112.679 3.34229 112.621 3.33989 112.563 3.34187C112.505 3.34385 112.449 3.35016 112.398 3.36044C112.211 3.36044 111.556 3.36044 110.9 3.20607C109.62 2.94483 107.342 2.89733 106.967 3.13482C106.908 3.17523 106.81 3.20525 106.693 3.21855C106.577 3.23185 106.451 3.22737 106.343 3.20607C106.156 3.20607 105.968 3.20607 105.968 3.28919C105.968 3.37231 105.625 3.40794 105.188 3.36044C104.751 3.31294 104.47 3.36044 104.657 3.68105C104.845 4.00166 104.657 4.06103 104.408 3.98979C104.246 3.9229 104.121 3.84425 104.04 3.75856C103.96 3.67287 103.925 3.5819 103.94 3.49106C103.94 3.08733 103.659 3.0517 102.067 3.28919C101.255 3.39905 100.4 3.45527 99.5385 3.45543C98.9412 3.42507 98.3363 3.48474 97.853 3.62168C97.6033 3.77605 97.416 3.77605 97.0414 3.62168C96.6669 3.46731 96.3859 3.49106 95.7305 3.7048C95.075 3.91854 95.0438 3.89479 95.231 3.78792C95.7929 3.41982 91.5791 3.64543 90.7052 4.02541C89.8312 4.40539 89.0821 4.47664 89.8624 4.12041C90.1434 3.98979 90.2369 3.8473 90.1121 3.78792C89.9872 3.72855 89.5815 3.78792 89.3006 3.96603C89.0197 4.14415 88.4266 4.2154 87.3341 4.15603C86.2417 4.09666 85.9295 4.15603 86.0232 4.21541C86.0558 4.2317 86.0779 4.25069 86.0876 4.27083C86.0974 4.29097 86.0945 4.3117 86.0793 4.33135C86.0641 4.351 86.037 4.369 86.0002 4.38393C85.9633 4.39885 85.9177 4.41028 85.8671 4.41727C85.6798 4.41727 85.3989 4.41726 85.3053 4.31039C85.2117 4.20352 84.4937 4.1204 83.3389 4.14415L81.2164 4.14415C81.0291 4.14415 81.2164 4.27477 81.747 4.44101C82.8395 4.80912 82.8082 4.89225 81.747 4.80913C81.2164 4.80913 80.7482 4.66663 80.7482 4.59539C80.7482 4.52414 80.2488 4.59539 79.6869 4.72601C79.1251 4.85663 78.5633 4.93974 78.4384 4.821C78.1575 4.48851 75.3171 5.04662 75.3171 5.48597C75.3171 5.59284 75.3171 5.67596 75.598 5.67596C75.657 5.67569 75.7154 5.68032 75.7692 5.68952C75.823 5.69872 75.8709 5.71226 75.9095 5.72922C75.9481 5.74617 75.9766 5.76613 75.9928 5.78769C76.0091 5.80925 76.0129 5.83191 76.0038 5.85408C76.0038 5.96095 75.7541 5.99657 75.4107 5.9372C75.0674 5.87783 74.8177 5.9372 74.8177 5.9372C74.8177 5.9372 74.568 6.03219 74.2246 5.9372C73.8813 5.8422 73.6004 5.7947 73.6004 5.71158C73.6004 5.62846 73.8501 5.56909 74.2246 5.56909C74.5992 5.56909 74.8177 5.56909 74.8177 5.41472C74.8177 5.26035 74.568 5.27223 74.2559 5.27223C74.0464 5.26144 73.8446 5.23487 73.6624 5.19409C73.4802 5.15332 73.3212 5.09915 73.1946 5.03474C73.0788 4.97746 72.933 4.92995 72.7664 4.8952C72.5999 4.86046 72.4162 4.83924 72.227 4.83287C71.9773 4.83287 71.9773 4.83287 72.227 4.91599C72.3627 4.93228 72.4827 4.96356 72.5716 5.00585C72.6605 5.04813 72.7144 5.09952 72.7264 5.15348C72.7264 5.2366 72.4455 5.27223 72.1645 5.22473C71.8836 5.17724 71.4779 5.2841 71.3218 5.59284C71.1658 5.90157 70.8224 6.04406 69.9796 6.04406L68.9184 6.04406L69.8548 5.7947C70.7288 5.55721 70.7288 5.53346 70.0421 5.3316C69.3554 5.12973 69.3554 5.12974 70.0421 5.22473C70.7288 5.31973 70.7912 5.29598 70.2605 5.05849C69.7299 4.821 67.545 4.69038 68.0132 4.97537C68.4814 5.26036 68.0132 5.10599 67.545 4.97537C66.8347 4.8882 66.0704 4.8882 65.3601 4.97537C64.611 5.04662 64.2052 5.10598 64.5173 5.11786C65.6098 5.11786 63.9867 5.56909 62.3636 5.66408C61.4906 5.71806 60.647 5.82639 59.8666 5.9847C58.8054 6.25781 58.6805 6.38843 59.6481 6.24594C60.0539 6.24594 60.2099 6.24593 60.0226 6.31718C59.8354 6.38843 60.0227 6.51905 60.3972 6.56654C60.7718 6.61404 60.8966 6.56654 60.7718 6.56654C60.6469 6.56654 60.7718 6.34093 61.3024 6.25781C61.833 6.17468 62.3012 6.16281 63.0191 6.4003C63.737 6.63779 63.8306 6.69716 63.2064 6.61404C62.5821 6.53092 62.5197 6.61404 62.707 6.61404C62.8942 6.61404 62.707 6.78028 62.4885 6.76841C61.2088 6.76841 60.1787 6.76841 60.1787 6.92278C60.1787 7.07715 63.0503 7.06527 63.7058 6.92278C64.3613 6.78029 64.2052 6.92278 64.2052 6.92278C64.2052 6.92278 64.4549 7.07715 64.7982 7.07715C65.1416 7.07715 65.3913 7.07715 65.3913 6.92278C65.3913 6.88184 65.4341 6.84257 65.5102 6.81362C65.5863 6.78467 65.6895 6.76841 65.7971 6.76841C66.0156 6.76841 66.2029 6.9109 66.2029 7.07715C66.2029 7.24339 66.0156 7.38588 65.7659 7.38588C65.7195 7.38279 65.6718 7.38546 65.6298 7.39351C65.5877 7.40156 65.5537 7.41456 65.5327 7.43057C65.5116 7.44658 65.5047 7.46476 65.513 7.48238C65.5213 7.5 65.5442 7.51613 65.5786 7.52837C65.8907 7.71836 67.4826 7.52838 67.2953 7.33838C67.108 7.14839 68.6999 6.47155 69.1993 6.47155C69.6987 6.47155 69.3866 6.62591 69.1993 6.81591C69.0726 7.01088 69.1277 7.21655 69.3554 7.39776C69.6987 7.59963 69.7299 7.59963 69.7924 7.39776C69.8244 7.2833 69.8244 7.16786 69.7924 7.0534C69.7924 6.78029 71.4466 6.9584 71.6339 7.24339C71.7005 7.34301 71.8618 7.4297 72.0867 7.48672C72.3115 7.54375 72.5839 7.56705 72.8512 7.55213C73.4131 7.55213 73.7252 7.55212 73.5692 7.70649C73.4555 7.75643 73.3085 7.79381 73.1438 7.81471C72.979 7.8356 72.8025 7.83923 72.6328 7.82523C72.2582 7.82523 72.0085 7.82524 72.0709 7.96773C72.0709 8.26459 71.4467 8.19334 71.0097 7.87273C70.848 7.79802 70.6416 7.73914 70.4078 7.70102C70.1741 7.6629 69.9196 7.64664 69.6659 7.65362C69.4122 7.6606 69.1666 7.69061 68.9496 7.74112C68.7327 7.79164 68.5507 7.86121 68.419 7.94398C68.2317 8.0746 67.7947 8.09835 66.9832 7.94398C66.6912 7.8945 66.3678 7.87826 66.052 7.89723C65.7363 7.91619 65.4417 7.96955 65.204 8.05085C64.7583 8.20333 64.1804 8.2879 63.5809 8.28835C63.3527 8.2798 63.1224 8.29263 62.9102 8.32575C62.698 8.35887 62.5103 8.41126 62.3636 8.47833C62.3636 8.59708 61.7082 8.64458 61.0215 8.60895C60.3348 8.57333 60.0851 8.60895 61.4897 8.85831L63.1127 9.17893L63.9555 8.77519C64.7358 8.41896 64.8607 8.40709 65.1104 8.65645C65.3601 8.90581 65.4537 8.90581 65.9844 8.56145C66.515 8.21709 66.5462 8.21709 66.4838 8.47833C66.4838 9.13143 67.7323 9.66578 68.2629 9.13143C68.2629 8.98894 68.4814 8.98894 68.5126 9.13143C68.5438 9.27392 70.0109 9.39267 70.3542 9.13143C70.6976 8.87019 71.1657 8.98893 71.8836 8.98893C75.0049 8.98893 75.0049 8.98894 75.0049 8.66833C75.0049 8.34772 75.005 8.32397 75.161 8.27647C75.3171 8.22897 75.5356 8.27647 75.5356 8.40709C75.5356 8.53771 75.8477 8.59707 76.5344 8.54958C77.2211 8.50208 77.5332 8.54958 77.5332 8.66833C77.5332 8.78707 77.5332 8.82269 77.7829 8.76332C78.0326 8.70394 79.1251 8.94143 79.1251 9.1433C79.1251 9.34516 78.5008 9.25017 77.6893 9.21455C76.0662 9.21455 74.724 9.21455 74.724 9.42829C75.6717 9.5009 76.648 9.5009 77.5956 9.42829C79.6869 9.42829 80.4048 9.42829 80.28 9.54703C80.1551 9.66578 78.4072 9.83202 75.1922 9.8439C74.2246 9.8439 73.5692 9.91514 73.6628 9.98638C73.7564 10.0576 73.4131 10.0695 72.8825 9.98638C72.3519 9.90326 71.8836 9.98639 71.8836 10.0814C71.8836 10.1764 71.2906 10.2357 70.2918 10.2001C69.293 10.1645 68.6687 10.2001 68.6687 10.3545C68.6529 10.4124 68.5987 10.4678 68.5114 10.5155C68.4241 10.5633 68.3064 10.6018 68.1693 10.6276C67.9196 10.6276 68.1693 10.6276 68.6687 10.6276C70.3542 10.4732 70.4478 10.4732 70.6039 10.7582C70.7599 11.0432 70.6039 11.0313 69.7924 11.0432C68.9808 11.0551 68.9184 11.0432 69.7924 11.1738C70.9964 11.3006 72.2826 11.2453 73.3819 11.0195C73.8661 10.9533 74.3959 10.9533 74.8801 11.0195C75.4121 11.0983 76.0024 11.0983 76.5344 11.0195C78.1823 10.8278 79.9431 10.8278 81.5909 11.0195C82.0739 11.1129 82.5747 11.1922 83.0891 11.257C83.8695 11.352 83.8695 11.3757 83.0891 11.5538C82.3088 11.7319 82.1528 11.9457 83.2765 11.9457C85.1805 11.9457 85.8359 12.4682 83.9319 12.48C83.4949 12.48 83.214 12.5513 83.2452 12.6344C85.3897 12.8287 87.6242 12.8287 89.7688 12.6344C90.7457 12.4659 91.8237 12.4003 92.8901 12.4444C93.0913 12.4511 93.2821 12.4816 93.4355 12.5316C93.5889 12.5816 93.6973 12.6487 93.7455 12.7233C93.7937 12.798 93.7793 12.8765 93.7042 12.9478C93.6292 13.0192 93.4973 13.0798 93.3271 13.1212C93.0462 13.2044 93.1398 13.2281 93.608 13.1212C93.9631 13.0784 94.3294 13.0505 94.7004 13.0381C94.8877 13.0381 94.9501 12.9431 94.7004 12.8125C94.4507 12.6819 94.7005 12.6106 95.6993 12.7175C96.1657 12.7755 96.6686 12.7755 97.1351 12.7175C97.1351 12.7175 97.6345 12.7175 97.9778 12.8363C98.3212 12.955 98.6957 13.0025 98.9767 12.8363C99.2576 12.67 99.3824 12.6819 99.757 12.9194C100.132 13.1569 100.194 13.1569 100.038 12.9194C99.972 12.8568 99.9575 12.7881 99.9966 12.7224C100.036 12.6566 100.126 12.597 100.256 12.5513C100.537 12.48 100.6 12.5513 100.412 12.6225C100.225 12.6938 100.412 12.8006 100.6 12.8006C100.787 12.8006 100.974 12.8956 100.881 13.0144C100.787 13.1331 101.63 13.62 102.285 13.4775C102.941 13.335 102.535 13.3231 101.786 13.24L100.787 13.145L101.879 13.145C102.504 13.145 103.003 13.145 103.003 13.2756C103.003 13.2969 103.014 13.318 103.037 13.3376C103.059 13.3571 103.092 13.3747 103.133 13.3892C103.174 13.4037 103.222 13.4148 103.275 13.4218C103.328 13.4288 103.384 13.4316 103.44 13.43C103.69 13.43 103.721 13.3587 103.44 13.2519C103.159 13.145 104.002 12.8244 105.032 12.8244C105.469 12.8244 105.719 12.9313 105.719 13.1212C105.719 13.5131 105.875 13.5131 108.216 13.1212C109.776 12.8363 110.026 12.8244 109.714 13.0381C109.402 13.2519 109.714 13.3112 110.463 13.3825C111.212 13.4537 111.618 13.3825 111.68 13.3112C111.743 13.24 113.241 13.145 113.553 13.3112C113.647 13.3632 113.777 13.4041 113.929 13.429C114.081 13.4539 114.249 13.4618 114.413 13.4518C114.576 13.4419 114.729 13.4144 114.853 13.3727C114.977 13.331 115.068 13.2767 115.114 13.2162C115.301 13.0381 115.114 12.9906 114.771 13.0619C114.427 13.1331 114.146 13.0619 114.146 13.0619C114.146 12.8125 115.301 12.7531 115.769 12.9787C116.237 13.2044 117.985 13.2875 117.58 13.05C117.174 12.8125 117.58 12.8838 117.767 12.8838C117.875 12.8838 117.978 12.9 118.054 12.929C118.13 12.9579 118.173 12.9972 118.173 13.0381C118.173 13.1212 118.454 13.1925 118.797 13.1925C119.14 13.1925 119.359 13.1925 119.234 13.3231C119.109 13.4537 119.952 13.62 120.514 13.3944C121.076 13.1687 120.888 13.1925 120.514 13.2044C120.026 13.1708 119.565 13.0935 119.172 12.9787C118.454 12.7531 118.485 12.7531 119.484 12.8838C119.881 12.9568 120.328 12.9817 120.763 12.955C120.763 12.955 121.076 12.955 121.232 13.1687C121.388 13.3825 121.793 13.4656 122.855 13.4537C123.916 13.4419 124.259 13.3825 124.259 13.3112C124.259 13.24 124.415 13.2162 124.634 13.3112C124.852 13.4062 125.164 13.3112 125.383 13.1331C125.601 12.955 126.257 12.8838 127.818 12.8956C129.378 12.9075 129.909 12.8956 129.909 12.7294C129.909 12.5631 130.127 12.7294 130.408 12.8125C130.557 12.8915 130.764 12.9518 131.003 12.9856C131.242 13.0195 131.502 13.0253 131.75 13.0025C131.985 12.9796 132.232 12.982 132.463 13.0092C132.695 13.0365 132.902 13.0876 133.061 13.1569C133.717 13.4537 135.715 13.5012 135.402 13.1569C135.402 13.0381 135.402 12.9669 136.058 12.9669C136.713 12.9669 136.869 12.9669 136.838 12.8125C136.807 12.6581 138.805 12.6581 139.522 12.8125C139.71 12.8125 139.959 12.8125 140.053 12.6938C140.147 12.575 140.365 12.5394 140.896 12.6938C141.427 12.8481 141.676 12.8719 142.113 12.6938C142.55 12.5156 144.236 12.4325 144.08 12.6938C143.924 12.955 146.608 12.9075 147.201 12.6938C147.794 12.48 149.23 12.4325 148.949 12.6938C148.919 12.7175 148.907 12.7439 148.914 12.7701C148.921 12.7962 148.947 12.8212 148.989 12.8421C149.031 12.863 149.087 12.879 149.152 12.8885C149.216 12.8979 149.287 12.9004 149.355 12.8956C149.522 12.8945 149.686 12.8763 149.829 12.8428C149.971 12.8094 150.088 12.762 150.166 12.7056C150.166 12.5631 150.447 12.5631 151.009 12.7056C151.571 12.8481 151.664 12.8837 151.664 12.7056C151.664 12.5275 151.914 12.6225 152.226 12.8006C152.538 12.9787 152.819 13.0144 152.851 12.9194C152.882 12.8244 153.319 12.7175 153.849 12.6819C154.38 12.6463 154.755 12.6819 154.63 12.7413C154.505 12.8006 155.16 12.8956 155.722 12.67C156.284 12.4444 156.971 12.3613 157.345 12.5869C157.72 12.8125 157.689 12.7175 157.689 12.5869C157.689 12.4563 158.531 12.4325 159.998 12.4444C161.465 12.4563 162.527 12.4444 163.12 12.195C163.713 11.9457 164.712 11.8863 164.462 12.195C164.462 12.2782 164.212 12.3257 164.025 12.29C163.838 12.2544 163.806 12.29 164.025 12.4088C164.243 12.5275 164.836 12.5275 165.773 12.4088C166.804 12.3433 167.849 12.3155 168.894 12.3256C169.269 12.3456 169.652 12.3336 170.013 12.2904C170.375 12.2473 170.707 12.1742 170.985 12.0763C171.422 11.8625 171.485 11.8625 171.516 12.0763C171.537 12.1448 171.621 12.2083 171.752 12.256C171.883 12.3037 172.053 12.3325 172.234 12.3375C172.841 12.3518 173.446 12.3795 174.044 12.4206C174.825 12.4206 175.168 12.4206 175.168 12.29C175.168 12.233 175.201 12.1767 175.266 12.1254C175.331 12.074 175.426 12.0288 175.542 11.9932C175.761 11.9932 175.823 11.9932 175.73 12.1119C175.636 12.2307 175.979 12.3257 177.915 12.3138C179.85 12.3019 180.443 12.2307 181.036 11.9338C181.629 11.6369 181.941 11.6013 182.69 11.7438C182.876 11.7918 183.085 11.825 183.305 11.8413C183.525 11.8576 183.751 11.8568 183.97 11.8388C184.188 11.8388 184.376 11.8388 184.376 11.8388C185.615 11.9667 186.904 12.0109 188.184 11.9694C189.391 12.0182 190.612 11.9738 191.773 11.8388C191.773 11.7676 191.773 11.7201 191.992 11.7201C192.045 11.7184 192.099 11.7208 192.15 11.7271C192.2 11.7334 192.248 11.7435 192.288 11.7567C192.329 11.77 192.362 11.7861 192.386 11.8043C192.41 11.8225 192.425 11.8423 192.429 11.8625C192.429 12.0169 193.49 12.0288 195.55 11.8625C196.924 11.7913 196.955 11.7794 195.987 11.6369C194.458 11.4232 195.706 11.2332 197.704 11.3757C199.701 11.5182 200.295 11.5419 199.733 11.3757C199.171 11.2095 199.421 11.2095 199.733 11.067C200.045 10.9245 200.419 10.9245 201.012 11.1501C201.416 11.3079 201.963 11.4013 202.542 11.4113C203.509 11.4113 203.884 10.877 202.916 10.877C202.573 10.877 202.386 10.9482 202.511 11.0195C202.635 11.0907 202.511 11.1738 202.511 11.1738C202.511 11.1738 201.605 10.9126 202.105 10.7938C202.543 10.744 203.009 10.744 203.447 10.7938C204.134 10.8651 204.321 10.9601 204.196 11.1857C204.071 11.4113 204.196 11.4944 205.382 11.4944C206.568 11.4944 206.88 11.4232 206.943 11.3401C207.005 11.257 207.817 11.162 208.691 11.1263C209.565 11.0907 210.376 11.0551 210.439 11.0551C210.501 11.0551 210.439 10.9363 210.095 10.8057C209.752 10.6751 209.721 10.5801 210.782 10.6157C211.843 10.6514 211.968 10.7226 211.843 10.8413C211.719 10.9601 211.843 11.0432 212.093 11.0432C212.247 11.0392 212.395 11.0179 212.517 10.9819C212.639 10.946 212.731 10.8971 212.78 10.8413C212.78 10.6988 213.716 10.6395 215.558 10.6514C216.603 10.6904 217.658 10.6623 218.679 10.5682C219.12 10.5009 219.612 10.5009 220.052 10.5682C220.807 10.6768 221.639 10.6768 222.393 10.5682C223.205 10.4851 223.892 10.4614 223.892 10.5682C224.716 10.6711 225.588 10.7075 226.451 10.6751C228.48 10.6751 228.979 10.6751 228.823 10.4495C228.667 10.2239 228.823 10.2714 229.448 10.4495C230.072 10.6276 230.29 10.592 230.072 10.4495C229.853 10.307 230.072 10.1645 230.883 10.4495C231.695 10.7345 231.695 10.6395 232.069 10.5207C232.274 10.4692 232.507 10.4361 232.75 10.4237C232.994 10.4114 233.241 10.4202 233.474 10.4495C234.192 10.5207 234.348 10.4495 234.379 10.1764L234.379 9.82013L234.816 10.2001L235.222 10.5801L235.597 10.2239C235.909 9.93888 236.065 9.90326 236.502 10.0695C236.939 10.2357 237.001 10.3426 236.908 10.4257C236.814 10.5089 242.651 10.6157 243.15 10.4257C243.65 10.2357 243.837 10.2951 244.43 10.4257C246.462 10.6676 248.64 10.6676 250.673 10.4257C250.849 10.3561 251.063 10.302 251.301 10.2671C251.538 10.2322 251.792 10.2175 252.046 10.2239C252.608 10.2239 253.107 10.1526 253.107 10.0576C253.107 9.96263 253.294 9.98638 253.607 10.0576C253.919 10.1289 255.042 10.2951 257.415 10.3189C258.523 10.376 259.65 10.3436 260.723 10.2239C260.723 10.1526 261.035 10.0457 261.379 9.99825C261.722 9.95075 261.972 9.99825 261.784 10.117C261.597 10.2357 261.94 10.3426 263.158 10.3307C264.375 10.3189 264.75 10.3307 264.75 10.212C264.75 10.0932 265.592 10.1289 266.622 10.212C267.652 10.2951 268.402 10.212 268.277 10.1526C268.152 10.0933 268.839 10.0101 269.806 10.0101C270.774 10.0101 271.492 10.0101 271.429 10.0814C271.367 10.1526 273.333 10.1764 273.958 10.0814C274.582 9.98638 274.457 9.99825 274.27 10.0814C274.082 10.1645 274.551 10.2595 275.362 10.2951C277.808 10.3885 280.277 10.3243 282.666 10.1051C282.612 10.0658 282.602 10.0199 282.637 9.97756C282.672 9.93525 282.75 9.89998 282.853 9.87951C282.957 9.85904 283.077 9.85504 283.189 9.8684C283.3 9.88176 283.393 9.91139 283.446 9.95075C283.479 9.9707 283.499 9.99302 283.507 10.0162C283.515 10.0394 283.51 10.063 283.492 10.0854C283.475 10.1079 283.445 10.1286 283.405 10.1463C283.364 10.164 283.315 10.1783 283.259 10.1882C282.51 10.3664 282.853 10.5682 283.883 10.5682C284.414 10.5682 284.882 10.5089 284.882 10.4376C284.882 10.3664 285.194 10.2476 285.538 10.2001C285.881 10.1526 286.099 10.2001 285.943 10.3426C285.787 10.4851 287.067 10.6632 287.504 10.4139C287.941 10.1645 287.941 10.307 288.378 10.4139C289.185 10.5482 290.075 10.5938 290.946 10.5456C291.818 10.4973 292.637 10.357 293.31 10.1407L294.277 9.78451L293.185 9.63015C292.623 9.54702 292.124 9.40453 292.124 9.33328C292.124 9.26204 291.531 9.10767 290.844 8.98892L289.564 8.78706L290.688 8.66832C291.178 8.61788 291.695 8.61788 292.186 8.66832C292.317 8.69337 292.461 8.70642 292.607 8.70642C292.754 8.70642 292.898 8.69337 293.029 8.66832C294.174 8.56522 295.348 8.51341 296.525 8.51394C297.595 8.53813 298.665 8.46486 299.646 8.3002C299.833 8.18146 299.989 8.19333 300.145 8.3002C300.301 8.40707 300.457 8.46644 300.801 8.3002C301.144 8.13396 301.238 8.09834 301.456 8.3002C301.675 8.50207 302.112 8.51394 303.079 8.46644C304.047 8.41895 304.484 8.3477 304.484 8.27646C304.484 8.20521 305.576 8.08647 305.764 8.27646C305.951 8.46645 307.262 8.44269 309.759 8.41895C312.245 8.45772 314.703 8.62962 317.063 8.92955C317.874 8.92955 318.499 8.92955 318.655 8.8583C318.811 8.78706 319.373 8.73956 320.153 8.8583C321.409 8.94209 322.687 8.96999 323.961 8.94142C325.012 8.89259 326.078 8.93315 327.082 9.06017C327.332 9.14329 327.582 9.16704 327.582 9.06017C327.582 8.9533 327.956 9.06017 328.393 9.06017C329.466 9.18704 330.579 9.25892 331.702 9.27391C332.958 9.29313 334.21 9.34471 335.447 9.42828C336.228 9.49953 336.446 9.42828 336.072 9.42828C335.697 9.42828 335.666 9.25016 336.072 9.17892C336.477 9.10767 336.633 9.17891 336.758 9.30953C336.827 9.37259 336.939 9.4277 337.081 9.46936C337.223 9.51102 337.392 9.53779 337.57 9.54702C337.633 9.54721 337.695 9.54134 337.751 9.52996C337.806 9.51859 337.853 9.50207 337.887 9.48194C337.921 9.46181 337.942 9.43873 337.946 9.41482C337.951 9.39091 337.939 9.36695 337.913 9.34516C337.664 9.10767 340.036 8.89393 340.41 9.11954C340.785 9.34516 342.221 9.19078 342.939 9.01267C343.188 9.01267 343.376 9.01267 343.376 9.07204C343.376 9.13141 343.126 9.25016 342.876 9.28578C342.626 9.32141 342.502 9.40453 342.658 9.47578C342.814 9.54703 343.781 9.47577 343.781 9.07204C343.781 8.66831 343.594 8.77518 342.939 8.83456C342.283 8.89393 342.189 8.83456 342.626 8.66832C343.063 8.50207 343.063 8.43082 342.626 8.51394C342.545 8.52958 342.456 8.53861 342.365 8.54044C342.274 8.54227 342.183 8.53687 342.098 8.52458C342.013 8.51229 341.935 8.49338 341.871 8.46906C341.806 8.44474 341.755 8.41554 341.721 8.38332C341.721 8.2527 341.721 8.19333 341.908 8.2527C342.096 8.31207 342.314 8.25271 342.314 8.01522C342.314 7.77773 342.314 7.70648 341.721 7.86085C341.128 8.01522 341.066 7.9796 340.91 7.86085C340.878 7.84297 340.858 7.82233 340.852 7.8008C340.846 7.77927 340.854 7.75752 340.876 7.7375C340.897 7.71748 340.932 7.69983 340.976 7.68612C341.02 7.67242 341.072 7.66309 341.128 7.65898C341.503 7.65898 341.503 7.50461 341.128 7.24337C340.754 6.98214 340.91 6.57841 341.472 6.92277C341.574 6.98121 341.727 7.02401 341.904 7.04358C342.081 7.06314 342.271 7.0582 342.439 7.02963C342.662 7.01107 342.893 7.01441 343.112 7.03935C343.33 7.06428 343.529 7.10998 343.688 7.17213C344.25 7.38587 344.281 7.374 344.281 7.08901C344.281 6.80402 344.125 6.76839 343.906 6.76839C343.688 6.76839 343.376 6.60216 343.251 6.37654C343.126 6.15093 342.814 6.0203 342.564 6.04405C342.314 6.0678 341.659 5.77094 341.128 5.36721C340.825 5.08163 340.355 4.82589 339.755 4.61912C339.536 4.61912 339.474 4.71412 339.568 4.82098C339.661 4.92785 339.568 5.03473 339.131 5.0466C338.694 5.05848 338.475 4.91598 338.444 4.36976C338.413 3.82353 338.444 3.76416 338.6 3.85916C338.616 3.8776 338.643 3.89443 338.678 3.90842C338.714 3.92242 338.757 3.93322 338.805 3.94005C338.853 3.94688 338.904 3.94955 338.955 3.94788C339.006 3.94622 339.055 3.94024 339.099 3.9304C339.318 3.9304 339.349 3.93041 339.099 4.08477C338.725 4.45288 339.942 4.22727 340.504 3.82353C341.066 3.4198 340.941 3.5148 340.847 3.95415C340.754 4.39351 340.847 4.41725 341.659 4.441C342.47 4.46475 342.502 4.441 342.346 4.32226C342.319 4.30267 342.283 4.28526 342.239 4.27106C342.194 4.25685 342.143 4.24612 342.088 4.23949C342.033 4.23286 341.975 4.23047 341.917 4.23244C341.86 4.23442 341.804 4.24074 341.752 4.25102C341.534 4.25102 341.378 4.25101 341.378 4.17976C341.378 4.10852 341.628 4.01352 341.971 4.01352C342.314 4.01352 342.72 3.76416 341.971 3.64542C341.628 3.64542 341.471 3.49105 341.596 3.40793C341.721 3.32481 341.596 3.25356 341.003 3.25356C340.41 3.25356 340.285 3.18231 340.41 3.09919C340.535 3.01607 340.161 2.94483 339.474 2.94483C338.787 2.94483 338.163 3.02794 338.038 3.13481C337.913 3.24168 337.851 3.13482 338.038 2.94483C338.038 2.4936 338.756 2.26798 339.224 2.54109C339.692 2.8142 339.536 2.62421 339.536 2.44609C339.541 2.41178 339.527 2.37749 339.496 2.34518C339.465 2.31287 339.418 2.28319 339.357 2.25782C339.297 2.23245 339.223 2.2119 339.141 2.19735C339.06 2.18279 338.971 2.17451 338.881 2.17299C338.537 2.17299 338.381 2.08986 338.538 2.00674C338.694 1.92362 338.538 1.86424 337.882 1.93549C337.227 2.00674 337.07 1.99486 337.476 1.93549C337.882 1.87612 337.913 1.698 337.695 1.50801C337.476 1.31802 337.351 1.27052 337.227 1.50801C337.102 1.7455 336.509 1.73363 334.886 1.73363C333.262 1.73363 332.701 1.73363 332.701 1.85237C332.701 1.97112 332.513 1.94737 332.295 1.85237C332.237 1.84361 332.184 1.83017 332.14 1.81296C332.097 1.79575 332.063 1.77518 332.043 1.75264C332.022 1.73011 332.014 1.70614 332.02 1.68237C332.026 1.6586 332.045 1.63558 332.076 1.61488C332.232 1.53176 331.546 1.46052 330.609 1.46052C325.49 1.46052 320.215 1.10428 320.215 0.843044C320.215 0.771797 319.966 0.748049 319.622 0.843044C319.279 0.93804 319.123 0.997415 319.217 1.06866C319.31 1.13991 319.217 1.21115 318.842 1.21115C318.631 1.1983 318.431 1.16692 318.258 1.11951C318.084 1.0721 317.942 1.00997 317.843 0.938042C317.469 0.712427 317.344 0.700553 317.032 0.938042C316.719 1.17553 316.719 1.21116 316.844 1.2824C316.969 1.35365 316.439 1.44864 316.064 1.2824C315.689 1.11616 316.064 1.08053 316.251 0.973664C316.439 0.866794 316.251 0.759923 314.722 0.759923C313.86 0.737288 312.998 0.802895 312.225 0.949919C311.85 1.09241 311.569 1.09241 310.945 0.949919C310.321 0.807426 310.196 0.807426 310.383 0.949919C310.418 0.98016 310.436 1.01283 310.436 1.04584C310.435 1.07886 310.417 1.11148 310.382 1.14165C310.347 1.17182 310.295 1.19887 310.231 1.22106C310.167 1.24325 310.091 1.26009 310.009 1.27053C309.26 1.3774 306.138 1.05679 306.138 0.866799C306.138 0.676807 305.295 0.771804 304.265 0.866799C303.22 0.895883 302.169 0.867884 301.144 0.783669C300.02 0.664925 299.802 0.676805 299.989 0.854922C300.177 1.03304 299.989 1.08053 299.615 1.08053C299.24 1.08053 299.053 0.926167 299.053 0.759924C299.053 0.593682 298.866 0.451189 298.241 0.510562C297.617 0.569934 297.43 0.510562 297.43 0.510562C297.43 0.510562 296.65 0.391817 295.932 0.510562C295.582 0.565324 295.189 0.565324 294.839 0.510562C294.433 0.439315 294.215 0.510561 294.215 0.676804C294.215 0.843046 293.31 1.35365 292.841 1.35365C292.373 1.35365 292.841 1.24678 292.841 1.11616C292.841 0.985543 292.841 0.902421 292.217 0.985542C291.593 1.06866 291.343 0.985542 291.343 0.985542C291.343 0.985542 290.906 0.84305 290.376 0.8668C289.845 0.890548 289.377 0.866799 289.377 0.73618C289.377 0.605561 289.72 0.581806 290.157 0.581806C290.594 0.581806 290.937 0.510562 290.937 0.427441C290.937 0.34432 290.532 0.308694 290.032 0.332444C289.263 0.347936 288.492 0.347936 287.723 0.332444C286.849 0.332444 286.661 0.332441 287.254 0.403687C288.503 0.498683 288.378 0.700556 287.036 0.73618C284.57 0.807427 283.54 0.73618 283.197 0.52244C282.853 0.308699 281.324 0.225578 281.043 0.52244C280.881 0.663775 280.578 0.774815 280.2 0.831169C278.345 0.810625 276.523 0.636375 274.863 0.320567C274.703 0.272408 274.505 0.246206 274.301 0.246206C274.097 0.246206 273.899 0.272408 273.739 0.320567C273.364 0.439312 272.803 0.439312 271.648 0.320567C271.15 0.224696 270.59 0.186004 270.036 0.209199C269.482 0.232395 268.957 0.316474 268.526 0.451188C267.746 0.617429 267.184 0.688682 267.34 0.605561C267.496 0.522439 267.091 0.451192 266.248 0.474942C265.309 0.468577 264.384 0.387682 263.532 0.237446C262.627 0.0712048 262.034 0.035588 261.753 0.142458C261.472 0.249328 261.503 0.296823 261.753 0.296823C262.003 0.296823 262.128 0.368066 262.003 0.451188C261.878 0.534309 261.379 0.569932 260.879 0.534308L259.693 0.451188C259.693 0.451188 259.412 0.320567 259.412 0.189948C259.412 0.0593289 259.412 -0.0237924 258.819 0.189948C258.647 0.237115 258.503 0.297361 258.396 0.366862C258.288 0.436363 258.22 0.513606 258.195 0.593684C258.195 0.700555 258.008 0.795548 257.789 0.795548C257.682 0.795548 257.578 0.779282 257.502 0.750332C257.426 0.721382 257.383 0.682124 257.383 0.641184C257.383 0.558062 256.353 0.48681 255.042 0.48681C254.124 0.510226 253.201 0.465881 252.327 0.356199C251.797 0.238519 251.215 0.158071 250.61 0.118705C249.611 0.0355837 249.33 0.118707 249.424 0.213702L249.081 0.142458ZM223.642 0.819303C223.642 0.819303 223.143 0.819303 222.549 0.819303C221.956 0.819303 221.582 0.819303 222.019 0.688684C222.456 0.558065 223.642 0.617434 223.642 0.759927L223.642 0.819303ZM226.014 1.10429C225.83 1.15727 225.605 1.18592 225.374 1.18592C225.143 1.18592 224.919 1.15727 224.734 1.10429C224.36 0.961794 224.422 0.914292 224.953 0.914292C225.483 0.914292 225.64 0.843048 225.64 0.759927C225.64 0.676806 225.889 0.676806 226.233 0.759927C226.576 0.843048 226.701 0.973668 226.014 1.10429ZM248.612 1.24678C248.612 1.24678 248.269 1.24678 247.895 1.24678C247.683 1.22395 247.496 1.17588 247.361 1.10963C247.226 1.04338 247.15 0.962433 247.145 0.878669C247.145 0.593683 247.145 0.593683 247.895 0.878669C248.176 0.988743 248.417 1.11253 248.612 1.24678ZM230.915 0.87867C230.915 0.919611 230.872 0.958879 230.796 0.987827C230.72 1.01678 230.616 1.03304 230.509 1.03304C230.401 1.03304 230.298 1.01678 230.222 0.987827C230.146 0.958879 230.103 0.919611 230.103 0.87867C230.098 0.857942 230.106 0.837071 230.124 0.817518C230.143 0.797966 230.173 0.780212 230.211 0.765499C230.25 0.750786 230.297 0.739475 230.348 0.732359C230.399 0.725243 230.454 0.722492 230.509 0.724305C230.616 0.724305 230.72 0.740572 230.796 0.769521C230.872 0.798471 230.915 0.837729 230.915 0.87867ZM263.47 1.18741C263.47 1.38927 263.283 1.44864 262.877 1.38927C262.711 1.36801 262.566 1.32836 262.461 1.27545C262.355 1.22253 262.293 1.15877 262.284 1.09241C262.284 1.06331 262.299 1.03451 262.329 1.00778C262.36 0.981038 262.404 0.956923 262.459 0.936912C262.515 0.916901 262.58 0.901413 262.652 0.891397C262.724 0.881382 262.801 0.877052 262.877 0.878668C263.22 0.878668 263.47 1.02116 263.47 1.18741ZM240.84 1.46052C240.466 1.46052 240.154 1.60301 240.154 1.69801C240.154 1.79301 239.998 1.79301 239.779 1.69801C239.671 1.63792 239.601 1.56919 239.574 1.49712C239.547 1.42506 239.564 1.3516 239.623 1.28241C239.779 1.11616 239.998 1.11616 240.684 1.28241C241.371 1.44865 241.465 1.47239 240.84 1.51989L240.84 1.46052ZM282.728 1.18741C282.728 1.27053 282.541 1.3299 281.979 1.3299C281.532 1.33977 281.09 1.28931 280.731 1.18741C280.575 1.09241 280.887 1.03304 281.48 1.03304C281.933 1.02207 282.379 1.07728 282.728 1.18741ZM203.229 1.41303C203.229 1.54365 203.072 1.63864 202.823 1.63864C202.573 1.63864 202.417 1.54365 202.417 1.41303C202.417 1.28241 202.604 1.18741 202.823 1.18741C203.041 1.18741 203.229 1.28241 203.229 1.41303ZM173.482 1.48427C173.482 1.57927 173.482 1.63864 173.295 1.63864C173.108 1.63864 173.014 1.63864 172.889 1.48427C172.765 1.3299 172.889 1.32991 173.045 1.32991C173.101 1.32827 173.157 1.33104 173.21 1.33806C173.263 1.34508 173.312 1.35619 173.353 1.37069C173.394 1.38519 173.427 1.40278 173.449 1.42232C173.471 1.44187 173.483 1.46296 173.482 1.48427ZM175.792 1.48427C175.705 1.54655 175.575 1.59841 175.415 1.63406C175.255 1.66971 175.072 1.68774 174.887 1.68614C174.702 1.68643 174.521 1.66785 174.362 1.63234C174.203 1.59683 174.071 1.54569 173.982 1.48427C173.982 1.35365 174.2 1.28241 174.887 1.28241C175.574 1.28241 175.917 1.35365 175.792 1.48427ZM178.32 1.48427C178.601 1.56739 178.757 1.67426 178.601 1.73363C178.445 1.79301 178.102 1.73363 177.79 1.73363C177.478 1.73363 177.103 1.60302 176.978 1.66239C176.853 1.72176 176.697 1.66239 176.697 1.57927C176.697 1.49615 177.478 1.34178 178.32 1.57927L178.32 1.48427ZM179.725 1.56739C179.725 1.69801 179.538 1.75739 179.319 1.70989C179.21 1.68411 179.117 1.64946 179.047 1.60841C178.976 1.56735 178.931 1.52091 178.914 1.4724C178.914 1.43145 178.956 1.3922 179.032 1.36325C179.108 1.3343 179.212 1.31803 179.319 1.31803C179.538 1.31803 179.725 1.43677 179.725 1.56739ZM303.173 1.41302C303.173 1.47239 302.674 1.47239 302.424 1.41302C302.174 1.35365 302.205 1.31803 302.674 1.31803C303.142 1.31803 303.329 1.31802 303.173 1.38927L303.173 1.41302ZM307.699 1.65051C307.699 1.69145 307.656 1.73072 307.58 1.75967C307.504 1.78862 307.401 1.80487 307.293 1.80487C307.186 1.80487 307.082 1.78862 307.006 1.75967C306.93 1.73072 306.887 1.69145 306.887 1.65051C306.887 1.60957 306.93 1.5703 307.006 1.54135C307.082 1.5124 307.186 1.49614 307.293 1.49614C307.401 1.49614 307.504 1.5124 307.58 1.54135C307.656 1.5703 307.699 1.60957 307.699 1.65051ZM159.749 1.95925C159.374 2.19674 158.781 2.13736 159.031 1.888C159.28 1.63864 159.436 1.68614 159.624 1.73364C159.669 1.74695 159.706 1.76404 159.731 1.7836C159.756 1.80315 159.77 1.82465 159.77 1.84644C159.77 1.86823 159.756 1.88973 159.731 1.90929C159.706 1.92885 159.669 1.94594 159.624 1.95925L159.749 1.95925ZM183.97 1.95925C184.086 2.01122 184.171 2.07205 184.219 2.13762C184.268 2.20318 184.279 2.27194 184.251 2.33923C184.251 2.41048 183.876 2.33923 183.72 2.33923C183.521 2.26777 183.285 2.21291 183.027 2.17815C182.769 2.14339 182.495 2.1295 182.222 2.13737C181.473 2.13737 181.067 2.05425 181.192 1.94737C181.317 1.84051 183.439 1.73363 183.97 2.01862L183.97 1.95925ZM198.796 1.81675C198.952 1.89988 198.796 1.97112 198.203 1.97112C197.61 1.97112 197.485 1.89988 197.61 1.81675C197.676 1.77698 197.763 1.74277 197.865 1.71622C197.967 1.68967 198.082 1.67136 198.203 1.66239C198.327 1.66816 198.446 1.68519 198.549 1.71205C198.652 1.73892 198.737 1.77483 198.796 1.81675ZM314.94 1.81675C314.94 1.85769 314.898 1.89696 314.822 1.92591C314.745 1.95486 314.642 1.97111 314.535 1.97111C314.285 1.97111 314.222 1.89987 314.347 1.81675C314.472 1.73363 314.659 1.66239 314.784 1.66239C314.909 1.66239 314.784 1.73363 314.784 1.81675L314.94 1.81675ZM206.756 2.11362C207.255 2.33923 207.286 2.43423 206.912 2.4936C206.58 2.54096 206.214 2.54096 205.882 2.4936C205.476 2.3986 205.507 2.35111 205.882 2.29173C206.256 2.23236 206.194 2.20861 205.694 2.19674C205.195 2.18486 205.101 2.11362 205.226 2.03049C205.351 1.94737 206.006 1.8405 206.724 2.16111L206.756 2.11362ZM210.283 2.11362C210.283 2.24423 210.283 2.33923 210.127 2.33923C209.971 2.33923 209.877 2.24423 209.752 2.11362C209.627 1.983 209.752 1.888 209.908 1.888C210.064 1.888 210.283 1.983 210.283 2.11362ZM228.386 2.18486C228.917 2.31548 228.917 2.33923 228.386 2.33923C228.217 2.34302 228.048 2.33217 227.891 2.30749C227.734 2.28281 227.594 2.24494 227.481 2.19674C227.169 2.00674 227.668 1.99487 228.449 2.19674L228.386 2.18486ZM310.321 2.18485C310.321 2.26798 310.321 2.33923 310.165 2.33923C310.109 2.34087 310.053 2.33809 310 2.33107C309.947 2.32405 309.898 2.31294 309.857 2.29843C309.816 2.28393 309.784 2.26636 309.761 2.24681C309.739 2.22727 309.728 2.20617 309.728 2.18485C309.728 2.10173 309.728 2.03049 309.915 2.03049C310.102 2.03049 310.165 2.10173 310.321 2.18485ZM145.391 2.50548C145.016 2.64797 144.236 2.41048 144.517 2.24424C144.798 2.078 144.922 2.12549 145.203 2.24424C145.484 2.36298 145.515 2.45798 145.391 2.50548ZM175.792 2.41048C176.416 2.52922 176.916 2.67172 176.916 2.75484C176.916 2.83796 176.572 2.90921 174.825 2.68359C173.763 2.5411 173.482 2.43423 173.826 2.30361C174.169 2.17299 174.356 2.13737 174.481 2.16112L175.792 2.41048ZM266.498 2.51735C266.092 2.67172 265.717 2.4461 266.061 2.24423C266.404 2.04237 266.404 2.08987 266.56 2.24423C266.609 2.28735 266.634 2.33382 266.634 2.38079C266.634 2.42775 266.609 2.47423 266.56 2.51735L266.498 2.51735ZM157.969 2.38673C157.969 2.38673 158.344 2.51735 158.843 2.52922C160.342 2.52922 160.56 2.83797 159.187 2.94484C158.836 3.00339 158.445 3.01651 158.072 2.98219C157.7 2.94786 157.368 2.86799 157.127 2.75484C156.596 2.52922 156.534 2.42235 156.877 2.36298C157.22 2.30361 157.969 2.25611 157.969 2.36298L157.969 2.38673ZM168.863 3.03982C168.863 3.24169 168.395 3.21794 167.552 2.96858C167.34 2.91962 167.179 2.84478 167.094 2.75632C167.009 2.66787 167.005 2.57105 167.084 2.48172C167.333 2.23236 167.427 2.24423 168.114 2.56484C168.446 2.70204 168.701 2.86369 168.863 3.03982ZM181.348 2.41048C181.348 2.45142 181.305 2.49069 181.229 2.51964C181.153 2.54859 181.05 2.56484 180.942 2.56484C180.835 2.56484 180.732 2.54859 180.655 2.51964C180.579 2.49069 180.537 2.45142 180.537 2.41048C180.537 2.36954 180.579 2.33027 180.655 2.30132C180.732 2.27237 180.835 2.25611 180.942 2.25611C181.05 2.25611 181.153 2.27237 181.229 2.30132C181.305 2.33027 181.348 2.36954 181.348 2.41048ZM166.054 2.56484C166.058 2.58557 166.051 2.60645 166.033 2.626C166.014 2.64556 165.984 2.66331 165.945 2.67802C165.907 2.69274 165.86 2.70405 165.809 2.71116C165.757 2.71828 165.702 2.72103 165.648 2.71922C165.519 2.71431 165.395 2.69773 165.286 2.67088C165.178 2.64402 165.088 2.60766 165.024 2.56484C165.024 2.48172 165.024 2.41048 165.429 2.41048C165.835 2.41048 166.054 2.48172 166.054 2.56484ZM170.236 2.56484C171.173 2.70734 171.017 3.07545 170.08 2.98046C169.612 2.98046 169.269 2.81421 169.269 2.69546C169.269 2.57672 169.269 2.4461 170.236 2.56484ZM145.11 2.93296C145.11 2.9739 145.067 3.01316 144.991 3.04211C144.915 3.07106 144.812 3.08732 144.704 3.08732C144.596 3.08732 144.493 3.07106 144.417 3.04211C144.341 3.01316 144.298 2.9739 144.298 2.93296C144.298 2.89202 144.341 2.85275 144.417 2.8238C144.493 2.79485 144.596 2.77858 144.704 2.77858C144.812 2.77858 144.915 2.79485 144.991 2.8238C145.067 2.85275 145.11 2.89202 145.11 2.93296ZM164.649 2.93296C164.649 3.02795 164.649 3.0517 164.243 2.99232C163.838 2.93295 163.432 2.77858 164.025 2.77858C164.152 2.78524 164.274 2.80253 164.382 2.82922C164.49 2.8559 164.581 2.89133 164.649 2.93296ZM258.819 2.93295C258.819 3.01607 258.819 3.08732 258.663 3.08732C258.552 3.08743 258.446 3.07155 258.365 3.0429C258.283 3.01425 258.234 2.97495 258.226 2.93295C258.226 2.84983 258.226 2.77858 258.413 2.77858C258.601 2.77858 258.694 2.84983 258.819 2.93295ZM290.438 2.93295C290.43 2.97495 290.381 3.01425 290.3 3.0429C290.218 3.07155 290.112 3.08742 290.001 3.08732C289.783 3.08732 289.689 3.01607 289.814 2.93295C289.939 2.84983 290.126 2.77858 290.251 2.77858C290.376 2.77858 290.438 2.84983 290.438 2.93295ZM162.464 3.07545C162.469 3.09513 162.462 3.11495 162.445 3.13363C162.428 3.15232 162.401 3.16946 162.366 3.18398C162.331 3.19849 162.288 3.21006 162.241 3.21795C162.193 3.22584 162.142 3.22989 162.09 3.22982C161.959 3.22702 161.833 3.21131 161.724 3.18423C161.614 3.15715 161.525 3.11965 161.465 3.07545C161.309 2.99232 161.465 2.92108 161.84 2.92108C162.214 2.92108 162.464 2.99232 162.464 3.07545ZM336.946 3.07544C336.946 3.15856 336.946 3.22981 336.54 3.22981C336.134 3.22981 336.009 3.15856 336.134 3.07544C336.259 2.99232 336.446 2.92107 336.54 2.92107C336.633 2.92107 336.821 2.99232 336.946 3.07544ZM124.103 3.49106C124.103 3.59793 123.916 3.66918 123.51 3.6573C123.104 3.64543 122.761 3.55043 122.761 3.43168C122.761 3.31294 123.885 3.22982 124.103 3.43168L124.103 3.49106ZM125.945 3.49106C125.945 3.63355 125.945 3.68105 125.414 3.62168C124.884 3.56231 124.727 3.49106 124.852 3.40794C124.977 3.32482 125.695 3.2417 125.945 3.49106ZM109.215 3.76417C109.027 3.97791 107.311 4.13228 107.311 3.91854C107.311 3.7048 107.779 3.57418 108.622 3.57418C109.464 3.57418 109.308 3.6573 109.215 3.76417ZM189.027 3.76416C189.027 3.91853 188.277 3.98978 188.028 3.84729C187.778 3.70479 188.028 3.68104 188.402 3.68104C188.777 3.68104 189.027 3.68104 189.027 3.76416ZM100.787 4.08478C100.664 4.11188 100.524 4.12614 100.381 4.12614C100.239 4.12614 100.099 4.11188 99.9755 4.08478C99.6633 4.08478 99.7882 4.00166 100.225 4.00166C100.662 4.00166 100.912 4.00166 100.787 4.07291L100.787 4.08478ZM128.879 4.08478C128.879 4.08478 128.879 4.19165 128.504 4.23915C128.13 4.28665 128.099 4.23915 128.099 4.23915C128.094 4.2179 128.102 4.19654 128.12 4.17642C128.138 4.1563 128.168 4.13785 128.206 4.12224C128.244 4.10662 128.29 4.09417 128.341 4.08568C128.393 4.07719 128.448 4.07284 128.504 4.07291C128.723 4.07291 128.879 4.0729 128.879 4.14415L128.879 4.08478ZM301.581 4.1679C301.573 4.2099 301.524 4.24919 301.443 4.27784C301.361 4.3065 301.255 4.32237 301.144 4.32226C300.926 4.32226 300.832 4.25102 300.957 4.1679C301.082 4.08478 301.269 4.01352 301.394 4.01352C301.519 4.01352 301.581 4.08478 301.581 4.1679ZM224.079 4.78537C224.235 4.86849 224.079 4.93973 223.704 4.93973C223.33 4.93973 223.142 4.86849 223.299 4.78537C223.455 4.70225 223.611 4.631 223.704 4.631C223.798 4.631 223.954 4.631 224.079 4.78537ZM84.2441 4.92787C84.2441 4.96881 84.2013 5.00807 84.1252 5.03702C84.0491 5.06597 83.9459 5.08224 83.8383 5.08224C83.7307 5.08224 83.6275 5.06597 83.5514 5.03702C83.4753 5.00807 83.4325 4.96881 83.4325 4.92787C83.4325 4.88693 83.4753 4.84766 83.5514 4.81871C83.6275 4.78976 83.7307 4.7735 83.8383 4.7735C83.9459 4.7735 84.0491 4.78976 84.1252 4.81871C84.2013 4.84766 84.2441 4.88693 84.2441 4.92787ZM90.674 5.09411C90.674 5.31973 89.9561 5.27223 89.7064 5.02287C89.4567 4.7735 89.7063 4.83287 90.0809 4.88037C90.4555 4.92787 90.674 5.02287 90.674 5.09411ZM260.91 5.0941C260.911 5.11386 260.9 5.13341 260.879 5.15152C260.858 5.16963 260.828 5.1859 260.79 5.1993C260.752 5.2127 260.707 5.22293 260.658 5.22935C260.608 5.23577 260.556 5.23824 260.505 5.23659C260.453 5.23824 260.401 5.23577 260.352 5.22935C260.303 5.22293 260.258 5.2127 260.219 5.1993C260.181 5.1859 260.151 5.16963 260.13 5.15152C260.109 5.13341 260.099 5.11386 260.099 5.0941C260.099 5.05316 260.142 5.0139 260.218 4.98495C260.294 4.956 260.397 4.93973 260.505 4.93973C260.559 4.93792 260.614 4.94067 260.665 4.94779C260.717 4.9549 260.763 4.96621 260.802 4.98092C260.841 4.99564 260.87 5.0134 260.889 5.03295C260.908 5.05251 260.915 5.07338 260.91 5.0941ZM84.6186 5.67596C84.6186 5.67596 84.2129 5.78283 83.7134 5.7947C83.1303 5.81409 82.5546 5.8579 81.9967 5.92532C81.5597 5.99657 81.747 5.92532 82.4025 5.7472C83.058 5.56909 84.6186 5.42659 84.6186 5.67596ZM81.1227 5.7947C80.8804 5.92357 80.527 6.01602 80.1239 6.05594C79.5621 6.05594 79.406 6.21031 79.5933 6.34093C79.7806 6.47154 79.7493 6.48342 79.5933 6.43592C79.3638 6.29591 79.2248 6.13721 79.1875 5.97282C79.1875 5.67596 79.1875 5.61659 80.1863 5.61659C81.1852 5.61659 81.2476 5.68783 81.1539 5.7947L81.1227 5.7947ZM67.8884 5.7947C67.8884 5.86595 67.6387 5.96095 67.108 5.99657C66.1092 6.06782 65.4849 5.99657 65.9844 5.7472C66.2613 5.67091 66.5945 5.62984 66.9364 5.62984C67.2783 5.62984 67.6114 5.67091 67.8884 5.7472L67.8884 5.7947ZM92.3907 6.10344C92.578 6.10344 92.1722 6.18656 91.4855 6.10344C90.7988 6.02032 90.237 5.97282 90.237 5.8897C90.237 5.80658 91.8289 5.8897 92.3907 6.05594L92.3907 6.10344ZM224.297 6.02031C224.297 6.02031 224.016 6.12718 223.673 6.17468C223.33 6.22218 223.143 6.17468 223.267 6.17468C223.392 6.17468 224.297 5.96094 224.297 6.07969L224.297 6.02031ZM339.786 6.02031C339.786 6.02031 339.599 6.13905 339.38 6.19843C339.162 6.2578 338.974 6.19843 338.974 6.11531C338.974 6.0732 339.016 6.03262 339.091 6.00176C339.167 5.97091 339.27 5.95207 339.38 5.94906C339.599 5.94906 339.786 5.94906 339.786 6.02031ZM66.7959 6.31718C67.4826 6.59029 65.6098 6.64967 64.1116 6.41218C63.3001 6.28156 62.6446 6.12719 62.6446 6.06782C64.061 6.0222 65.4854 6.10776 66.7959 6.31718ZM72.6952 6.18656C72.6952 6.26968 72.6952 6.34093 72.5391 6.34093C72.3831 6.34093 72.2582 6.26968 72.1021 6.18656C71.9461 6.10344 72.1021 6.0322 72.2894 6.0322C72.397 6.0322 72.5002 6.04845 72.5763 6.0774C72.6524 6.10635 72.6952 6.14562 72.6952 6.18656ZM81.6846 6.31718C81.4349 6.56654 80.7482 6.63779 80.7482 6.41218C80.7482 6.18656 81.0291 6.21031 81.8718 6.10344C81.8491 6.17886 81.7853 6.25166 81.6846 6.31718ZM87.3966 6.4003C87.0811 6.49893 86.6808 6.54969 86.2729 6.5428C85.6486 6.5428 85.5238 6.54279 85.8671 6.72091C86.2933 6.8373 86.81 6.89585 87.3341 6.88716C88.0832 6.88716 88.2394 6.88715 87.8648 7.07714C87.6872 7.13217 87.4825 7.17312 87.2627 7.19759C87.043 7.22206 86.8126 7.22956 86.585 7.21964C86.1484 7.21064 85.7108 7.21064 85.2741 7.21964C84.3065 7.21964 84.7747 6.62591 85.8984 6.47154C87.022 6.31718 87.6775 6.2578 87.3966 6.47154L87.3966 6.4003ZM84.2753 6.5428C84.2753 6.62592 84.2752 6.69716 83.8695 6.69716C83.4637 6.69716 83.3389 6.62592 83.4637 6.5428C83.5886 6.45968 83.7758 6.4003 83.8695 6.4003C83.9631 6.4003 84.1192 6.45968 84.2753 6.5428ZM94.9501 6.62592C94.9501 6.75654 94.7941 6.85153 94.5756 6.85153C94.3571 6.85153 94.1386 6.75654 93.9825 6.62592C93.8265 6.4953 93.9825 6.4003 94.3571 6.4003C94.4362 6.39858 94.5153 6.40323 94.5893 6.41396C94.6633 6.42469 94.7305 6.44125 94.7865 6.46256C94.8425 6.48386 94.886 6.50943 94.9142 6.53758C94.9424 6.56573 94.9547 6.59584 94.9501 6.62592ZM159.343 6.69716C159.335 6.73916 159.285 6.77845 159.204 6.8071C159.123 6.83576 159.017 6.85163 158.906 6.85152C158.687 6.85152 158.594 6.78028 158.719 6.69716C158.758 6.66102 158.818 6.62853 158.893 6.6019C158.968 6.57526 159.058 6.55511 159.156 6.54279C159.156 6.54279 159.343 6.54279 159.343 6.69716ZM78.4696 7.01777C79.0627 7.38588 78.8754 7.469 77.7205 7.38588C76.5656 7.30276 76.6905 7.31463 77.3459 7.49275C80.28 8.26459 80.4673 8.45459 78.6257 8.58521C77.7205 8.58521 77.6269 8.5852 77.8454 8.32397C78.0638 8.06273 77.8454 8.06273 77.8454 8.19335C77.6501 8.25785 77.4214 8.306 77.174 8.33464C76.9266 8.36328 76.6661 8.37178 76.4095 8.35959C75.8477 8.35959 75.442 8.28834 75.5668 8.25271C75.6917 8.21709 75.3171 8.0746 74.7865 7.93211L73.8501 7.69462L74.6304 7.38588C75.0986 7.20777 75.3483 7.16027 75.1922 7.25526C75.0362 7.35026 75.1922 7.46901 75.7541 7.5165C76.3159 7.564 76.909 7.26714 76.1286 7.08902C76.0235 7.06261 75.9353 7.02756 75.8705 6.98646C75.8057 6.94536 75.7659 6.89925 75.7541 6.85153C75.7541 6.62591 78.1887 6.78028 78.5945 7.01777L78.4696 7.01777ZM167.24 6.79216C167.24 6.79216 166.74 6.79216 166.459 6.79216C166.179 6.79216 166.241 6.69716 166.709 6.69716C167.177 6.69716 167.365 6.69716 167.24 6.7684L167.24 6.79216ZM81.2788 7.80149C80.9355 7.94398 80.9355 8.03898 81.2788 8.19335C81.6222 8.34771 81.6222 8.38334 80.6858 8.19335C79.1563 7.93211 79.406 7.64712 81.1851 7.61149C81.6221 7.61149 81.6533 7.6115 81.1851 7.77774L81.2788 7.80149ZM83.9632 7.87273C83.828 7.93297 83.6505 7.97727 83.4514 8.00041C83.2523 8.02355 83.04 8.02457 82.8395 8.00335C82.0591 7.82523 82.3713 7.62337 83.4949 7.62337C84.6186 7.62337 84.5562 7.62337 83.9632 7.87273ZM86.7411 7.87273C86.6207 7.89666 86.4868 7.90916 86.351 7.90916C86.2151 7.90916 86.0812 7.89666 85.9608 7.87273C85.6487 7.87273 85.7423 7.78962 86.2105 7.77774C86.6787 7.76587 86.866 7.77774 86.7411 7.86086L86.7411 7.87273ZM145.391 8.32396C145.274 8.34509 145.146 8.35604 145.016 8.35604C144.886 8.35604 144.759 8.34509 144.641 8.32396C144.329 8.32396 144.423 8.22897 144.891 8.22897C145.359 8.22897 145.547 8.22896 145.391 8.30021L145.391 8.32396ZM111.993 8.87019C111.993 8.98893 111.743 8.95331 111.743 8.77519C111.743 8.59707 111.743 8.52583 111.961 8.57333C112.017 8.6199 112.046 8.67053 112.046 8.72176C112.046 8.77299 112.017 8.82362 111.961 8.87019L111.993 8.87019ZM89.5815 8.87019C89.5815 9.00081 89.3942 9.06018 89.1757 9.01268C89.0632 8.98828 88.9676 8.954 88.897 8.91269C88.8264 8.87137 88.7829 8.82422 88.77 8.77519C88.8092 8.74516 88.8731 8.7208 88.9519 8.70581C89.0307 8.69081 89.1203 8.68599 89.2069 8.69207C89.4254 8.69207 89.6127 8.81081 89.6127 8.94143L89.5815 8.87019ZM84.5562 9.11955C84.8059 9.21455 82.9019 9.38079 81.4348 9.38079C81.0297 9.36911 80.6227 9.36911 80.2175 9.38079C79.8742 9.38079 79.5621 9.38079 79.4996 9.26205C79.4372 9.1433 83.8383 8.84644 84.4625 9.07205L84.5562 9.11955ZM259.038 9.11954C259.038 9.16049 258.995 9.19975 258.919 9.2287C258.843 9.25765 258.739 9.27391 258.632 9.27391C258.524 9.27391 258.421 9.25765 258.345 9.2287C258.269 9.19975 258.226 9.16049 258.226 9.11954C258.226 9.0786 258.269 9.03934 258.345 9.01039C258.421 8.98144 258.524 8.96518 258.632 8.96518C258.739 8.96518 258.843 8.98144 258.919 9.01039C258.995 9.03934 259.038 9.0786 259.038 9.11954ZM63.2064 9.2858C63.2064 9.36892 63.2064 9.44016 63.0503 9.44016C62.9945 9.4418 62.9383 9.43903 62.8854 9.43201C62.8325 9.42499 62.7841 9.41388 62.743 9.39937C62.702 9.38487 62.6692 9.36729 62.6469 9.34774C62.6246 9.3282 62.6132 9.30711 62.6133 9.2858C62.6133 9.1908 62.6133 9.13143 62.8006 9.13143C62.9879 9.13143 63.0815 9.13143 63.2064 9.2858ZM84.7435 9.64203C84.7435 9.64203 84.4938 9.7489 84.1504 9.7964C83.8071 9.84389 83.5574 9.7964 83.5574 9.7964C83.5574 9.7964 83.8071 9.64203 84.1504 9.64203C84.4938 9.64203 84.7435 9.64203 84.7435 9.64203ZM285.475 10.022C285.475 10.1289 285.475 10.1645 285.007 10.117C284.539 10.0695 284.383 9.95075 284.383 9.86763C284.383 9.78451 285.288 9.78452 285.475 10.022ZM248.956 10.2001C248.956 10.2411 248.913 10.2803 248.837 10.3093C248.761 10.3382 248.658 10.3545 248.55 10.3545C248.442 10.3545 248.339 10.3382 248.263 10.3093C248.187 10.2803 248.144 10.2411 248.144 10.2001C248.144 10.1592 248.187 10.1199 248.263 10.091C248.339 10.062 248.442 10.0458 248.55 10.0458C248.658 10.0458 248.761 10.062 248.837 10.091C248.913 10.1199 248.956 10.1592 248.956 10.2001ZM133.03 10.8176C133.03 10.9126 133.03 10.9601 132.718 10.9601C132.406 10.9601 132.375 10.8651 132.375 10.7345C132.375 10.6039 132.375 10.5445 132.718 10.592C132.813 10.6178 132.89 10.6516 132.944 10.6908C132.998 10.7299 133.028 10.7734 133.03 10.8176ZM190.306 10.8176C189.98 10.8532 189.634 10.8532 189.307 10.8176C188.995 10.8176 189.308 10.7464 189.807 10.7464C190.306 10.7464 190.587 10.7463 190.306 10.8176ZM194.208 10.8176C194.208 10.9007 194.208 10.9601 194.208 10.9601C194.208 10.9601 193.927 10.9007 193.771 10.8176C193.615 10.7345 193.771 10.6632 193.958 10.6632C194.066 10.6632 194.169 10.6795 194.245 10.7084C194.321 10.7374 194.364 10.7767 194.364 10.8176L194.208 10.8176ZM181.723 10.9601C181.723 11.0432 181.723 11.1145 181.535 11.1145C181.348 11.1145 181.254 11.0432 181.098 10.9601C180.942 10.877 181.098 10.8057 181.286 10.8057C181.342 10.8041 181.398 10.8069 181.451 10.8139C181.503 10.8209 181.552 10.832 181.593 10.8465C181.634 10.861 181.667 10.8786 181.689 10.8981C181.711 10.9177 181.723 10.9388 181.723 10.9601ZM177.103 11.6963C177.103 11.6963 176.635 11.6963 176.354 11.5894C176.073 11.4826 176.011 11.4232 176.604 11.5182C177.197 11.6132 177.228 11.6607 177.103 11.6963ZM137.025 11.8744C137.03 11.8952 137.023 11.916 137.004 11.9356C136.986 11.9551 136.956 11.9729 136.917 11.9876C136.879 12.0023 136.832 12.0136 136.78 12.0207C136.729 12.0279 136.674 12.0306 136.62 12.0288C136.568 12.0289 136.516 12.0248 136.469 12.0169C136.421 12.009 136.378 11.9975 136.343 11.9829C136.308 11.9684 136.281 11.9513 136.264 11.9326C136.247 11.9139 136.241 11.8941 136.245 11.8744C136.241 11.8547 136.247 11.8349 136.264 11.8162C136.281 11.7976 136.308 11.7804 136.343 11.7659C136.378 11.7514 136.421 11.7398 136.469 11.7319C136.516 11.724 136.568 11.72 136.62 11.7201C136.727 11.7201 136.831 11.7363 136.907 11.7653C136.983 11.7942 137.025 11.8335 137.025 11.8744ZM115.176 12.0407C115.176 12.1238 115.176 12.195 114.989 12.195C114.802 12.195 114.708 12.1238 114.583 12.0407C114.458 11.9575 114.583 11.8863 114.739 11.8863C114.795 11.8847 114.851 11.8874 114.904 11.8945C114.957 11.9015 115.006 11.9126 115.047 11.9271C115.088 11.9416 115.12 11.9592 115.143 11.9787C115.165 11.9983 115.176 12.0194 115.176 12.0407ZM165.492 11.9457C165.492 11.9457 165.211 12.0407 164.868 12.1C164.524 12.1594 164.337 12.1 164.493 12.1C164.649 12.1 165.492 11.8744 165.492 12.005L165.492 11.9457ZM180.381 12.1832C180.381 12.2663 180.381 12.3375 180.193 12.3375C180.006 12.3375 179.944 12.2663 179.787 12.1832C179.631 12.1 179.787 12.0288 179.975 12.0288C180.082 12.0288 180.186 12.0451 180.262 12.074C180.338 12.103 180.381 12.1422 180.381 12.1832ZM130.096 12.4444C130.096 12.575 129.909 12.6344 129.659 12.575C129.553 12.5524 129.474 12.515 129.439 12.4707C129.404 12.4264 129.416 12.3786 129.472 12.3375C129.846 12.1238 130.096 12.1594 130.096 12.4444ZM134.404 12.4444C134.283 12.4683 134.149 12.4808 134.013 12.4808C133.878 12.4808 133.744 12.4683 133.623 12.4444C133.311 12.4444 133.405 12.3613 133.873 12.3494C134.341 12.3375 134.528 12.3494 134.404 12.4325L134.404 12.4444ZM103.19 12.575C103.19 12.575 103.19 12.6819 102.785 12.7294C102.379 12.7769 102.379 12.7294 102.379 12.7294C102.379 12.6873 102.42 12.6467 102.496 12.6158C102.571 12.585 102.674 12.5662 102.785 12.5631C103.034 12.5631 103.19 12.5631 103.19 12.6344L103.19 12.575Z" fill="#5E5E5E"/>
<path d="M265.811 0.213761C265.934 0.240858 266.074 0.255127 266.217 0.255127C266.359 0.255127 266.499 0.240858 266.623 0.213761C266.623 0.213761 266.623 0.130639 266.061 0.130639C265.499 0.130639 265.499 0.130641 265.811 0.225638L265.811 0.213761Z" fill="#5E5E5E"/>
<path d="M167.24 1.34172C167.24 1.42484 167.24 1.49609 167.428 1.49609C167.535 1.49609 167.638 1.47983 167.714 1.45088C167.791 1.42193 167.833 1.38266 167.833 1.34172C167.833 1.2586 167.833 1.18735 167.833 1.18735C167.833 1.18735 167.552 1.2586 167.396 1.34172L167.24 1.34172Z" fill="#5E5E5E"/>
<path d="M117.299 2.36299C117.419 2.38692 117.553 2.39941 117.689 2.39941C117.825 2.39941 117.959 2.38692 118.079 2.36299C118.079 2.36299 118.079 2.268 117.549 2.27987C117.018 2.29174 116.987 2.27987 117.299 2.37486L117.299 2.36299Z" fill="#5E5E5E"/>
<path d="M136.183 2.36316C136.515 2.41052 136.881 2.41052 137.213 2.36316C137.494 2.36316 137.213 2.28004 136.682 2.28004C136.152 2.28004 135.902 2.28004 136.183 2.36316Z" fill="#5E5E5E"/>
<path d="M75.9102 4.83288C75.9102 4.90412 74.9738 4.93975 73.8189 4.90412C72.664 4.8685 71.8525 4.90412 72.3207 4.99912C73.3507 5.28411 77.3772 5.14162 76.8778 4.84476C76.3784 4.54789 75.9102 4.66664 75.9102 4.84476L75.9102 4.83288Z" fill="#5E5E5E"/>
<path d="M342.034 5.0705C342.034 5.33174 343.126 5.71172 343.47 5.5811C343.813 5.45048 343.47 5.33174 342.877 5.1655C342.283 4.99925 342.034 4.91613 342.034 5.0705Z" fill="#5E5E5E"/>
<path d="M61.1155 5.32C61.2716 5.415 61.4589 5.47437 61.5525 5.47437C61.6461 5.47437 61.7398 5.415 61.7398 5.32C61.7319 5.278 61.6824 5.2387 61.6013 5.21005C61.5202 5.18139 61.4135 5.16552 61.3028 5.16563C61.2564 5.16616 61.2113 5.1716 61.1726 5.18135C61.1339 5.19109 61.1031 5.20474 61.0836 5.22077C61.0642 5.2368 61.0569 5.25459 61.0625 5.27211C61.0682 5.28964 61.0865 5.30622 61.1155 5.32Z" fill="#5E5E5E"/>
<path d="M59.4299 5.78282C59.6796 5.96094 59.9293 6.09155 60.0542 6.09155C60.179 6.09155 60.0542 5.96094 59.8045 5.78282C59.5548 5.60471 59.3051 5.47408 59.1802 5.47408C59.0554 5.47408 59.1802 5.60471 59.4299 5.78282Z" fill="#5E5E5E"/>
<path d="M57.0265 5.94907C57.0265 6.03219 57.3698 6.09155 57.838 6.09155C58.3062 6.09155 58.6183 6.09155 58.6183 6.09155C58.6183 6.09155 58.275 5.99656 57.838 5.94907C57.401 5.90157 57.0265 5.94907 57.0265 5.94907Z" fill="#5E5E5E"/>
<path d="M46.7884 6.31704C46.5387 6.57828 47.4751 6.74452 48.3803 6.6139C49.2854 6.48329 48.9733 6.6139 48.7861 6.68515C48.5988 6.75639 48.7861 6.86327 49.5664 6.86327C50.3467 6.86327 50.69 6.94639 50.8149 7.16013C50.9397 7.37387 51.1582 7.43324 51.7513 7.30263C52.4891 7.20489 53.292 7.20489 54.0298 7.30262C55.0287 7.37387 55.3408 7.44512 54.8414 7.48074C54.342 7.51637 54.1859 7.63511 54.342 7.77761C54.4617 7.87157 54.5458 7.97152 54.5917 8.07447C54.5917 8.25258 55.7466 8.07446 56.246 7.88447C56.7454 7.69448 56.683 7.62323 56.246 7.57573C55.809 7.52823 56.0587 7.40949 56.6518 7.20763L57.5569 6.91077L56.5581 6.91077C55.9978 6.92315 55.4364 6.89495 54.9038 6.82764C54.6627 6.78742 54.4023 6.76666 54.1391 6.76666C53.8758 6.76666 53.6155 6.78742 53.3744 6.82764C52.4692 7.01764 51.564 6.92264 51.9698 6.67328C52.0633 6.64535 52.1787 6.63017 52.2975 6.63017C52.4164 6.63017 52.5318 6.64535 52.6253 6.67328C52.9062 6.74453 52.9686 6.67328 52.8125 6.67328C52.6565 6.67328 52.0946 6.54266 51.5016 6.57828C49.2854 6.73265 48.8797 6.68515 50.1282 6.41204C51.3767 6.13893 50.4716 6.1033 49.2855 6.41204C49.0564 6.46687 48.7913 6.49596 48.5207 6.49596C48.2501 6.49596 47.985 6.46687 47.756 6.41204C47.163 6.2933 46.9132 6.30517 46.7572 6.41204L46.7884 6.31704ZM55.7778 7.78947C55.7778 7.87259 55.7778 7.94385 55.7778 7.94385C55.7778 7.94385 55.4968 7.87259 55.3408 7.78947C55.1847 7.70635 55.3408 7.63511 55.5281 7.63511C55.6357 7.63511 55.7389 7.65137 55.815 7.68032C55.8911 7.70927 55.9338 7.74853 55.9338 7.78947L55.7778 7.78947Z" fill="#5E5E5E"/>
<path d="M55.4968 6.24602C55.7153 6.54289 57.6818 6.80412 58.1812 6.61413C58.6806 6.42414 58.1812 6.45976 57.3384 6.45976C56.7367 6.46406 56.1544 6.37885 55.7154 6.22227C55.4032 6.05603 55.372 6.05603 55.4968 6.22227L55.4968 6.24602Z" fill="#5E5E5E"/>
<path d="M42.7935 6.7568L41.6385 6.94678L42.731 7.23177C43.8235 7.50488 43.8235 7.49301 43.605 7.16052C43.3865 6.82804 43.605 6.82804 44.2605 6.91116C46.6015 7.1724 47.3818 7.19615 47.3818 7.00616C47.3818 6.81617 47.1009 6.86366 46.7575 6.91116C46.4142 6.95866 46.2269 6.91116 46.383 6.91116C46.539 6.91116 46.383 6.7568 45.8212 6.7568C45.3755 6.77779 44.9246 6.77779 44.479 6.7568C43.9099 6.74199 43.3404 6.78287 42.8247 6.87554L42.7935 6.7568Z" fill="#5E5E5E"/>
<path d="M39.5157 7.10107C39.11 7.50481 39.2348 7.70667 39.7654 7.5048C40.2961 7.30294 41.0764 7.24356 40.733 7.5048C40.3897 7.76604 40.8891 7.69479 41.3885 7.76604C41.8523 7.81297 42.2734 7.90744 42.6058 8.03915C42.7931 8.14602 42.9179 8.03915 42.9179 7.86104C42.9179 7.68292 42.918 7.52855 42.044 7.61167C41.17 7.69479 41.2324 7.61167 41.4509 7.4573C41.6694 7.30293 41.4509 7.20794 41.2637 7.20794C41.0764 7.20794 40.9515 7.20794 41.0764 7.06544C41.2012 6.92295 41.0764 6.91108 40.5458 6.91108C40.33 6.91188 40.1191 6.93568 39.937 6.97975C39.755 7.02382 39.609 7.08642 39.5157 7.16044L39.5157 7.10107Z" fill="#5E5E5E"/>
<path d="M57.9937 7.16035C57.307 7.42159 57.3383 7.43346 58.5868 7.61157C59.8353 7.78969 59.8041 7.74219 59.4608 7.61157C59.3397 7.5633 59.251 7.50465 59.2021 7.44058C59.1532 7.3765 59.1456 7.3089 59.1798 7.24347C59.492 6.92286 58.7741 6.87536 57.9937 7.16035Z" fill="#5E5E5E"/>
<path d="M36.1451 7.31469C35.4119 7.36325 34.6621 7.36325 33.9289 7.31469C32.8052 7.31469 32.774 7.3147 33.7104 7.42157C34.1816 7.51343 34.72 7.54269 35.2399 7.50469C35.5208 7.50469 35.7705 7.50469 35.7705 7.50469C35.7705 7.50469 35.4896 7.67093 35.1462 7.71843C34.8029 7.76593 34.7717 8.13403 35.6769 8.13403C36.5821 8.13403 36.2699 8.13404 35.8329 7.99155C35.3959 7.84905 35.6769 7.78967 36.6445 7.62343C37.6121 7.45719 38.0179 7.40969 38.2051 7.62343C38.3924 7.83717 38.486 7.83717 38.6733 7.62343C38.8606 7.40969 37.4872 7.05347 36.1451 7.18408L36.1451 7.31469Z" fill="#5E5E5E"/>
<path d="M48.6303 7.38613C49.3794 7.65924 50.2534 7.70674 50.0037 7.38613C49.754 7.06552 49.4419 7.18426 48.9425 7.14864C48.4431 7.11301 48.0997 7.14864 48.6303 7.32675L48.6303 7.38613Z" fill="#5E5E5E"/>
<path d="M31.3693 7.76571C31.3693 7.94383 30.9635 8.02695 30.7138 7.97945C30.4641 7.93195 30.4329 7.97945 30.7138 8.06257C30.79 8.13227 30.81 8.20902 30.771 8.28304C30.7321 8.35706 30.6361 8.42499 30.4953 8.47818C30.2144 8.6088 30.0896 8.72754 30.2144 8.77504C30.3393 8.82254 30.6514 8.66817 30.9323 8.4663C31.4941 8.06257 32.6178 7.80134 32.2744 8.15757C32.2744 8.30006 32.2745 8.38318 32.649 8.38318C33.6791 8.38318 33.8663 8.06257 32.9924 7.75383C32.1184 7.4451 31.7126 7.3976 31.4629 7.75383L31.3693 7.76571Z" fill="#5E5E5E"/>
<path d="M28.2789 7.73031C28.2064 7.75905 28.1659 7.79734 28.1659 7.83717C28.1659 7.87701 28.2064 7.91531 28.2789 7.94405C28.5598 8.12217 29.6834 8.12217 29.6834 7.94405C29.6834 7.76593 28.6222 7.59969 28.3101 7.73031L28.2789 7.73031Z" fill="#5E5E5E"/>
<path d="M46.0079 7.9319C46.2493 8.03773 46.51 8.13694 46.7882 8.22876C46.7882 8.22876 46.7882 8.09814 46.7882 7.9319C46.7924 7.89193 46.7754 7.85204 46.738 7.81464C46.7007 7.77724 46.6439 7.7431 46.571 7.71426C46.4981 7.68543 46.4107 7.6625 46.3139 7.64684C46.2171 7.63118 46.1131 7.62313 46.0079 7.62316C45.29 7.62316 45.29 7.62316 46.0079 7.9319Z" fill="#5E5E5E"/>
<path d="M48.2554 8.03901C48.4097 8.09921 48.5942 8.14705 48.7979 8.17968C49.0016 8.21231 49.2205 8.22909 49.4415 8.229C50.2843 8.229 50.4403 8.47836 49.66 8.59711C48.8797 8.71585 49.4103 8.66835 49.66 8.68023C49.8414 8.67803 50.0207 8.69594 50.1758 8.73178C50.331 8.76761 50.4554 8.81985 50.534 8.8821C50.534 9.01272 50.8149 8.98896 51.0334 8.79897C51.564 8.30024 50.7213 7.88464 49.1294 7.87276C47.5375 7.86089 47.756 7.87276 48.0994 8.03901L48.2554 8.03901Z" fill="#5E5E5E"/>
<path d="M51.7514 8.02706C52.1797 8.14182 52.6948 8.20019 53.2184 8.1933C53.8426 8.1933 54.0924 8.19329 53.8114 8.12205C53.5305 8.0508 53.4056 8.00331 53.4993 7.94394C53.5929 7.88456 53.1872 7.82519 52.5317 7.83706C51.8762 7.84894 51.4704 7.90831 51.7514 8.02706Z" fill="#5E5E5E"/>
<path d="M23.6598 8.07439C23.6598 8.11534 23.7025 8.15459 23.7786 8.18354C23.8547 8.21249 23.958 8.22876 24.0656 8.22876C24.3153 8.22876 24.3777 8.15752 24.2529 8.07439C24.128 7.99127 23.9407 7.9319 23.8159 7.9319C23.691 7.9319 23.6598 7.9319 23.6598 8.07439Z" fill="#5E5E5E"/>
<path d="M26.2192 8.22907C25.5326 8.51406 25.5326 8.52593 26.2192 8.50218C26.9059 8.47843 26.9683 8.43094 26.8747 8.37157C26.781 8.3122 26.8747 8.22907 27.1556 8.19345C27.4365 8.15783 27.4989 8.09845 27.1556 8.02721C26.8122 7.95596 26.4065 8.02721 26.0319 8.22907L26.2192 8.22907Z" fill="#5E5E5E"/>
<path d="M39.7032 8.20524C40.3587 8.32398 40.6396 8.84646 40.0466 8.84646C39.4535 8.84646 39.7032 8.90584 39.7032 9.00084C39.7032 9.09583 40.3899 9.00083 41.2951 8.84646C42.0074 8.69876 42.7763 8.59459 43.5737 8.53773C44.1355 8.53773 44.1668 8.53773 43.8234 8.35961C43.759 8.32978 43.678 8.30575 43.5862 8.28925C43.4945 8.27275 43.3942 8.26419 43.2927 8.26419C43.1913 8.26419 43.0911 8.27275 42.9993 8.28925C42.9076 8.30575 42.8265 8.32978 42.7621 8.35961C42.3876 8.47836 42.1067 8.49023 41.9194 8.35961C41.8655 8.31713 41.7695 8.28453 41.6524 8.26895C41.5354 8.25336 41.4069 8.25608 41.2951 8.27649C41.1078 8.27649 40.8582 8.27649 40.7021 8.19337C40.5876 8.14274 40.4427 8.10336 40.2797 8.07855C40.1167 8.05375 39.9404 8.04426 39.7657 8.05087C39.2038 8.05087 39.1726 8.05087 39.7657 8.16962L39.7032 8.20524Z" fill="#5E5E5E"/>
<path d="M60.6157 8.21706C60.6157 8.31206 61.3649 8.3833 62.3013 8.3833C64.2989 8.3833 64.1428 8.22893 62.0827 8.13394C61.2088 8.13394 60.6157 8.13394 60.6157 8.21706Z" fill="#5E5E5E"/>
<path d="M55.9962 8.38314C55.9962 8.46627 55.9962 8.53752 55.9962 8.53752C55.9962 8.53752 55.9962 8.68001 55.7777 8.83438C55.5592 8.98875 55.2471 9.11937 53.9674 8.9175C52.1882 8.63251 52.0946 8.73938 53.9674 9.07187C55.8401 9.40435 58.2123 9.23811 57.4632 8.89375C57.2135 8.775 57.1511 8.68001 57.4632 8.70376C58.1183 8.7165 58.7746 8.7165 59.4296 8.70376C60.7718 8.70376 60.8967 8.70376 60.3036 8.52564C59.7585 8.42793 59.1428 8.40284 58.5556 8.4544C58.2966 8.48399 58.0244 8.49293 57.7558 8.48067C57.4873 8.46841 57.2283 8.43521 56.995 8.38314C56.6204 8.2644 56.4019 8.2644 56.2147 8.38314L55.9962 8.38314Z" fill="#5E5E5E"/>
<path d="M37.2685 8.49041C37.2685 8.59728 36.8628 8.68039 36.3634 8.68039C35.8393 8.68548 35.3343 8.75647 34.9275 8.88227C34.5218 9.03663 34.272 9.01288 33.835 8.77539C33.3981 8.5379 33.242 8.4904 33.242 8.77539C33.242 9.06038 33.0547 9.07225 32.7114 9.02475C32.6336 9.01343 32.5506 9.00814 32.4674 9.0092C32.3841 9.01026 32.3023 9.01764 32.2267 9.03092C32.151 9.0442 32.0832 9.06311 32.0271 9.08652C31.9709 9.10993 31.9277 9.13738 31.8999 9.16725C31.7126 9.35724 31.8998 9.36911 32.805 9.27412C33.5357 9.21548 34.2905 9.21548 35.0212 9.27412C35.7079 9.27412 36.0824 9.27412 36.0824 9.16725C36.0824 9.06038 36.3321 9.01288 36.6755 9.06038C37.0188 9.10787 37.2685 9.06038 37.2685 9.06038C37.2685 9.06038 37.6431 8.94163 38.0488 8.94163C38.4546 8.94163 38.8604 8.88226 38.8604 8.79914C38.8604 8.71601 38.6419 8.64477 38.3922 8.64477C38.2361 8.64192 38.0834 8.62671 37.9436 8.60014C37.8039 8.57356 37.6803 8.53619 37.5807 8.49041C37.3934 8.39541 37.2685 8.41916 37.2685 8.49041Z" fill="#5E5E5E"/>
<path d="M21.5055 8.69219C21.6698 8.73769 21.8587 8.76876 22.0584 8.78313C22.2581 8.7975 22.4637 8.79483 22.6604 8.77531C23.191 8.77531 23.0974 8.70406 22.2546 8.63281C21.4119 8.56157 21.2558 8.63281 21.5055 8.63281L21.5055 8.69219Z" fill="#5E5E5E"/>
<path d="M24.4086 8.69203C24.4086 8.77515 24.4085 8.81077 24.8143 8.69203C25.2201 8.57329 25.1889 8.57329 25.1889 8.53767C25.1889 8.50204 25.0328 8.46641 24.8143 8.46641C24.7583 8.46635 24.7028 8.47071 24.6515 8.4792C24.6001 8.48769 24.5539 8.50013 24.5158 8.51574C24.4776 8.53136 24.4484 8.54981 24.43 8.56994C24.4115 8.59006 24.4042 8.61141 24.4086 8.63265L24.4086 8.69203Z" fill="#5E5E5E"/>
<path d="M25.5949 9.02475C25.2203 9.27411 25.2516 9.32161 25.5949 9.27411C25.7555 9.24335 25.8936 9.198 25.9971 9.14208C26.1005 9.08615 26.1661 9.02138 26.188 8.9535C26.344 8.59727 26.188 8.62102 25.5637 9.02475L25.5949 9.02475Z" fill="#5E5E5E"/>
<path d="M28.1852 8.96533C28.6222 9.14344 28.9343 9.16719 29.2464 9.04845C29.5586 8.9297 29.2465 8.87033 28.6222 8.81095C27.9979 8.75158 27.5922 8.81096 28.1852 8.96533Z" fill="#5E5E5E"/>
<path d="M49.6599 9.16696C49.9408 9.27383 50.2529 9.32132 50.3778 9.27382C50.5026 9.22633 50.3778 9.14321 49.8784 9.08384C49.3789 9.02446 49.2541 9.01259 49.6599 9.16696Z" fill="#5E5E5E"/>
<path d="M22.13 9.38059C22.3573 9.47096 22.6207 9.5471 22.9104 9.6062C22.9104 9.6062 23.0664 9.51121 23.0664 9.38059C23.0664 9.24997 22.7231 9.15498 22.2861 9.15498C21.8491 9.15498 21.5682 9.15498 22.13 9.38059Z" fill="#5E5E5E"/>
<path d="M29.3719 9.44047C28.9349 9.71358 28.9661 9.72546 29.8401 9.63047C30.714 9.53547 31.2134 9.25048 30.3707 9.19111C30.0898 9.19111 29.6216 9.2861 29.3719 9.44047Z" fill="#5E5E5E"/>
<path d="M64.2365 9.63001C63.6435 9.7725 63.6747 9.78438 65.2041 9.84375C65.8284 9.84375 66.3278 9.84375 66.3278 9.76063C66.3278 9.67751 64.8608 9.47564 64.2365 9.63001Z" fill="#5E5E5E"/>
<path d="M338.382 9.49956L339.349 9.77267C340.067 9.97454 340.098 9.97454 339.599 9.77267C339.361 9.64737 339.021 9.55552 338.631 9.51143C338.413 9.51143 338.288 9.51143 338.382 9.51143L338.382 9.49956Z" fill="#5E5E5E"/>
<path d="M37.2685 9.76064C36.7378 9.89126 36.7378 9.915 37.2685 9.915C37.4443 9.91581 37.6187 9.90249 37.78 9.87589C37.9414 9.84928 38.0862 9.81001 38.2049 9.76064C38.517 9.57065 37.9864 9.57065 37.1748 9.76064L37.2685 9.76064Z" fill="#5E5E5E"/>
<path d="M61.7392 9.87966C61.115 9.87966 60.7092 9.99841 60.8028 10.0697C60.8965 10.1409 62.9878 10.0697 63.2999 9.90341C63.612 9.73716 63.2999 9.78467 63.2999 9.79654L61.7392 9.87966Z" fill="#5E5E5E"/>
<path d="M71.884 9.87952C70.4794 9.99827 70.6979 10.0458 72.8204 10.0933C73.5071 10.0933 73.9128 10.0933 73.9128 9.92702C73.9128 9.76078 73.9128 9.73703 73.6319 9.7489L71.884 9.87952Z" fill="#5E5E5E"/>
<path d="M55.9962 10.0696C55.9962 10.1409 55.9961 10.224 55.4967 10.2596C54.9973 10.2952 54.9037 10.3308 55.4967 10.4021C55.7166 10.4262 55.9488 10.4291 56.1723 10.4105C56.3958 10.3918 56.6035 10.3522 56.7765 10.2952C57.151 10.1409 57.0886 10.0815 56.4956 10.0221C55.9025 9.96274 55.8089 10.0221 55.9025 10.0221L55.9962 10.0696Z" fill="#5E5E5E"/>
<path d="M59.3359 10.1765C59.4564 10.2004 59.5902 10.2129 59.7261 10.2129C59.862 10.2129 59.9958 10.2004 60.1163 10.1765C60.1163 10.1765 60.1163 10.0933 59.5856 10.0933C59.055 10.0933 59.0238 10.0933 59.3359 10.1883L59.3359 10.1765Z" fill="#5E5E5E"/>
<path d="M48.9421 10.3665C48.63 10.4496 48.4739 10.5446 48.5988 10.5921C48.7236 10.6396 49.1606 10.5921 49.5976 10.4615C50.0345 10.3309 49.8785 10.1409 48.9421 10.3665Z" fill="#5E5E5E"/>
<path d="M43.1367 10.9719C43.0824 11.0193 43.078 11.0729 43.1245 11.1215C43.1709 11.1701 43.2647 11.2101 43.3864 11.2332C43.6361 11.2332 43.7297 11.2332 43.5736 11.2332C43.4176 11.2332 43.5736 11.0432 43.8233 10.9957C44.0731 10.9482 44.1979 10.9125 43.8233 10.9007C43.6839 10.8959 43.5436 10.9056 43.4173 10.9285C43.291 10.9515 43.1833 10.987 43.1054 11.0313L43.1367 10.9719Z" fill="#5E5E5E"/>
<path d="M64.2369 10.9841C64.2369 11.0672 63.8935 11.0909 63.519 10.9841C63.1444 10.8772 62.9571 10.9841 63.1132 10.9841C63.5119 11.0742 63.9612 11.1271 64.4241 11.1384C65.2669 11.1384 65.3605 11.1384 64.986 10.9603C64.6114 10.7822 64.2369 10.6991 64.2369 10.9603L64.2369 10.9841Z" fill="#5E5E5E"/>
<path d="M39.2659 11.4826C39.6093 11.6132 39.9526 11.6132 40.6393 11.4826C41.326 11.352 41.482 11.3045 40.1711 11.3045C38.8601 11.3045 38.9226 11.3045 39.2659 11.4826Z" fill="#5E5E5E"/>
<path d="M60.3976 11.6016C60.1063 11.7757 60.512 11.7757 61.6149 11.6016C62.3952 11.4709 62.3952 11.4709 61.6149 11.4591C61.4066 11.4476 61.194 11.4544 60.9938 11.4791C60.7935 11.5038 60.6109 11.5457 60.46 11.6016L60.3976 11.6016Z" fill="#5E5E5E"/>
<path d="M181.38 12.5156C181.38 12.5565 181.422 12.5958 181.499 12.6247C181.575 12.6537 181.678 12.6699 181.786 12.6699C182.035 12.6699 182.098 12.5987 181.973 12.5156C181.848 12.4324 181.629 12.3612 181.536 12.3612C181.442 12.3612 181.38 12.3612 181.38 12.5156Z" fill="#5E5E5E"/>
<path d="M138.305 13.5131C137.868 13.715 137.868 13.7269 138.461 13.6556C139.054 13.5844 139.117 13.5013 139.117 13.43C139.117 13.3588 138.898 13.2519 138.305 13.5131Z" fill="#5E5E5E"/>
</g>
<defs>
<clipPath id="clip0_395_2999">
<rect width="14" height="344" fill="white" transform="translate(0 14) rotate(-90)"/>
</clipPath>
</defs>
</svg>
