<svg width="48" height="26" viewBox="0 0 48 26" fill="none" xmlns="http://www.w3.org/2000/svg">
<path d="M41.7071 14.7071C42.0976 14.3166 42.0976 13.6834 41.7071 13.2929L35.3431 6.92893C34.9526 6.53841 34.3195 6.53841 33.9289 6.92893C33.5384 7.31945 33.5384 7.95262 33.9289 8.34314L39.5858 14L33.9289 19.6569C33.5384 20.0474 33.5384 20.6805 33.9289 21.0711C34.3195 21.4616 34.9526 21.4616 35.3431 21.0711L41.7071 14.7071ZM7 15L24 15L24 13L7 13L7 15ZM24 15L41 15L41 13L24 13L24 15Z" fill="#7ABFD1"/>
</svg>
