<svg width="174" height="120" viewBox="0 0 174 120" fill="none" xmlns="http://www.w3.org/2000/svg">
<path d="M87.0007 121H86.9361L1.58108 116.436C1.29028 116.421 1.01685 116.3 0.816988 116.1C0.617124 115.9 0.506007 115.636 0.506475 115.361V20.3766C0.506012 20.2281 0.538106 20.0812 0.600736 19.945C0.663366 19.8088 0.755176 19.6864 0.870387 19.5853C0.985597 19.4843 1.12171 19.4069 1.27016 19.358C1.41862 19.309 1.57619 19.2896 1.73297 19.301L8.63435 19.7976C8.78395 19.8083 8.92984 19.8467 9.06371 19.9107C9.19758 19.9746 9.31679 20.0628 9.41455 20.1703C9.51231 20.2777 9.5867 20.4023 9.63346 20.5369C9.68023 20.6715 9.69846 20.8134 9.68712 20.9547C9.67577 21.0959 9.63508 21.2337 9.56735 21.3601C9.49962 21.4865 9.40619 21.599 9.29238 21.6913C9.17858 21.7836 9.04664 21.8539 8.90409 21.898C8.76154 21.9422 8.61117 21.9594 8.46158 21.9487L2.78479 21.5382V114.346L85.8615 118.788V24.9387C85.8615 24.6535 85.9815 24.3799 86.1952 24.1782C86.4088 23.9765 86.6985 23.8632 87.0007 23.8632C87.3028 23.8632 87.5925 23.9765 87.8062 24.1782C88.0198 24.3799 88.1398 24.6535 88.1398 24.9387V119.925C88.1398 120.21 88.0198 120.483 87.8062 120.685C87.5925 120.887 87.3028 121 87.0007 121Z" fill="#C6EDDB"/>
<path d="M87.0007 115.113C86.8374 115.113 86.6761 115.079 86.5277 115.015C86.3793 114.951 86.2473 114.857 86.1406 114.74C84.2914 112.743 78.2273 108.255 68.5141 105.584C61.3678 103.612 53.3254 102.854 44.6222 103.323C33.7034 103.913 21.6986 106.448 8.94006 110.852C8.76801 110.912 8.58333 110.931 8.40169 110.909C8.22004 110.886 8.04679 110.823 7.89662 110.724C7.74644 110.625 7.62378 110.493 7.53903 110.34C7.45429 110.186 7.40995 110.016 7.40979 109.843V15.3411C7.41178 15.1226 7.48426 14.9098 7.61756 14.7311C7.75086 14.5524 7.93865 14.4163 8.15594 14.3409C21.1822 9.82891 33.4566 7.24757 44.6393 6.6614C53.6253 6.18994 61.9374 6.9984 69.3381 9.06347C82.0454 12.6074 87.631 18.5786 87.8627 18.8313C88.0418 19.027 88.1402 19.2771 88.1399 19.5358V114.038C88.1398 114.257 88.0689 114.471 87.9366 114.651C87.8042 114.831 87.6168 114.968 87.3994 115.045C87.2718 115.09 87.1368 115.113 87.0007 115.113ZM49.5434 101.032C56.6631 101.032 63.3025 101.88 69.3381 103.565C77.8969 105.953 83.2244 109.44 85.8558 111.541V19.9517C83.7332 17.8364 77.7792 13.6238 68.5141 11.0766C61.3678 9.1047 53.3254 8.34643 44.6222 8.81609C33.9217 9.39331 22.1676 11.842 9.6881 16.0958V108.312C22.1448 104.13 33.8952 101.726 44.6393 101.163C46.2974 101.076 47.9321 101.032 49.5434 101.032Z" fill="#C6EDDB"/>
<path d="M87.0006 121C86.6985 121 86.4087 120.887 86.1951 120.685C85.9815 120.484 85.8615 120.21 85.8615 119.925V24.9388C85.8615 24.6535 85.9815 24.38 86.1951 24.1783C86.4087 23.9766 86.6985 23.8632 87.0006 23.8632C87.3027 23.8632 87.5925 23.9766 87.8061 24.1783C88.0197 24.38 88.1398 24.6535 88.1398 24.9388V118.788L171.218 114.346V21.4898L165.494 21.6906C165.345 21.6958 165.195 21.6731 165.055 21.6238C164.915 21.5746 164.786 21.4997 164.676 21.4035C164.567 21.3073 164.478 21.1916 164.416 21.0631C164.354 20.9346 164.319 20.7957 164.313 20.6545C164.308 20.5133 164.332 20.3724 164.384 20.2399C164.436 20.1074 164.515 19.986 164.617 19.8824C164.719 19.7789 164.842 19.6953 164.978 19.6365C165.114 19.5776 165.261 19.5447 165.411 19.5395L172.314 19.3047C172.467 19.2994 172.62 19.3233 172.763 19.3749C172.906 19.4266 173.036 19.505 173.147 19.6054C173.257 19.7058 173.344 19.8262 173.404 19.9593C173.464 20.0924 173.495 20.2356 173.495 20.3802V115.363C173.495 115.638 173.384 115.902 173.184 116.102C172.984 116.302 172.711 116.423 172.42 116.438L87.0652 121H87.0006Z" fill="#C6EDDB"/>
<path d="M87.0006 115.112C86.8644 115.112 86.7294 115.089 86.6019 115.043C86.3848 114.967 86.1976 114.829 86.0653 114.65C85.933 114.47 85.8619 114.257 85.8615 114.038V19.5394C85.8616 19.2805 85.9607 19.0304 86.1405 18.8349C86.3722 18.5822 91.9578 12.6111 104.663 9.06711C112.068 7.00204 120.374 6.19896 129.362 6.66503C140.545 7.24763 152.821 9.82896 165.845 14.3409C166.064 14.4166 166.254 14.5539 166.388 14.7344C166.521 14.9149 166.593 15.1298 166.593 15.3501V109.845C166.593 110.018 166.549 110.188 166.464 110.342C166.379 110.495 166.257 110.627 166.107 110.726C165.956 110.825 165.783 110.888 165.601 110.91C165.42 110.933 165.235 110.913 165.063 110.854C152.305 106.443 140.3 103.908 129.381 103.325C120.674 102.85 112.635 103.612 105.499 105.584C95.7835 108.26 89.7194 112.754 87.8702 114.748C87.7615 114.864 87.6276 114.957 87.4775 115.019C87.3274 115.082 87.1648 115.114 87.0006 115.112ZM88.1398 19.9517V111.541C90.7769 109.44 96.1138 105.953 104.658 103.565C112.062 101.5 120.368 100.697 129.356 101.163C140.1 101.726 151.851 104.13 164.309 108.312V16.0959C151.83 11.842 140.081 9.39336 129.375 8.81614C120.674 8.34649 112.635 9.10654 105.499 11.0766C96.2183 13.6239 90.2719 17.8347 88.1398 19.9517Z" fill="#C6EDDB"/>
<path d="M87.0026 115.113H86.9362L8.48061 110.919C8.33101 110.911 8.18455 110.875 8.04959 110.813C7.91462 110.752 7.7938 110.666 7.69401 110.561C7.49248 110.347 7.38888 110.067 7.406 109.782C7.41448 109.641 7.45234 109.503 7.51742 109.375C7.5825 109.248 7.67353 109.134 7.7853 109.04C7.89708 108.945 8.02741 108.873 8.16886 108.826C8.31031 108.779 8.46012 108.76 8.60971 108.768L87.0615 112.96C87.3636 112.968 87.6501 113.089 87.8578 113.296C88.0656 113.504 88.1776 113.78 88.1693 114.066C88.161 114.351 88.033 114.621 87.8135 114.817C87.594 115.014 87.301 115.119 86.9988 115.112L87.0026 115.113Z" fill="#C6EDDB"/>
<path d="M87.0006 115.113C86.6985 115.121 86.4054 115.016 86.1857 114.82C85.966 114.624 85.8378 114.353 85.8292 114.068C85.8206 113.783 85.9324 113.506 86.14 113.299C86.3476 113.091 86.634 112.97 86.9361 112.962L165.39 108.769C165.692 108.753 165.988 108.851 166.214 109.041C166.44 109.232 166.576 109.499 166.593 109.784C166.611 110.069 166.507 110.349 166.305 110.562C166.104 110.775 165.821 110.904 165.519 110.92L87.0652 115.112L87.0006 115.113Z" fill="#C6EDDB"/>
<path d="M87.0007 20.6149C86.7827 20.6145 86.5694 20.555 86.3862 20.4436C86.2029 20.3321 86.0574 20.1733 85.9668 19.9861C85.8763 19.7989 85.8445 19.5911 85.8753 19.3873C85.9061 19.1836 85.9982 18.9925 86.1406 18.8367C86.3723 18.5839 91.9579 12.6128 104.663 9.06882C112.068 7.00375 120.374 6.20067 129.362 6.66674C140.545 7.24754 152.821 9.82888 165.845 14.3408C166.127 14.4407 166.354 14.6412 166.48 14.8989C166.605 15.1566 166.617 15.4505 166.514 15.7168C166.411 15.9831 166.201 16.2001 165.929 16.3208C165.657 16.4414 165.346 16.4559 165.063 16.3611C152.305 11.9495 140.3 9.41479 129.381 8.83219C120.674 8.3464 112.635 9.10646 105.499 11.0765C99.1536 12.8243 94.6995 15.2228 92.0794 16.9275C89.241 18.7739 87.8835 20.2259 87.8702 20.2403C87.7627 20.3584 87.6292 20.4532 87.4791 20.5179C87.329 20.5825 87.1657 20.6157 87.0007 20.6149Z" fill="#C6EDDB"/>
<path d="M95.5253 26.7098C95.2703 26.7109 95.0222 26.6311 94.8209 26.4833C94.6196 26.3355 94.4766 26.1281 94.4149 25.8945C94.3532 25.6608 94.3764 25.4144 94.4806 25.1946C94.5849 24.9749 94.7642 24.7945 94.9899 24.6824C101.343 21.5023 108.777 19.5162 117.093 18.7812C128.314 17.7881 140.894 19.1397 154.484 22.7697C154.775 22.8477 155.021 23.0315 155.168 23.2808C155.316 23.5301 155.352 23.8244 155.269 24.0989C155.187 24.3735 154.992 24.6058 154.728 24.7448C154.464 24.8838 154.152 24.9181 153.861 24.8401C140.545 21.2729 128.246 19.9553 117.306 20.9215C109.292 21.6386 102.142 23.5369 96.0588 26.5843C95.8943 26.6663 95.7113 26.7093 95.5253 26.7098Z" fill="#C6EDDB"/>
<path d="M95.5254 40.4465C95.271 40.4468 95.0238 40.3667 94.8232 40.2189C94.6227 40.0712 94.4803 39.8644 94.4187 39.6313C94.3571 39.3983 94.3799 39.1525 94.4834 38.9331C94.5869 38.7138 94.7653 38.5334 94.99 38.4208C101.343 35.2408 108.778 33.2546 117.093 32.5196C128.314 31.5247 140.894 32.8674 154.484 36.5081C154.631 36.5443 154.769 36.6077 154.889 36.6947C155.01 36.7818 155.111 36.8906 155.186 37.015C155.261 37.1393 155.309 37.2766 155.328 37.4188C155.346 37.561 155.334 37.7052 155.293 37.843C155.251 37.9808 155.181 38.1094 155.086 38.2212C154.991 38.333 154.874 38.4258 154.741 38.4941C154.607 38.5625 154.461 38.605 154.31 38.6192C154.159 38.6334 154.006 38.619 153.862 38.5768C140.545 35.0095 128.246 33.7009 117.306 34.66C109.292 35.377 102.142 37.2736 96.0589 40.321C95.8947 40.4037 95.7114 40.4468 95.5254 40.4465Z" fill="#C6EDDB"/>
<path d="M95.5254 54.1883C95.271 54.1886 95.0238 54.1085 94.8232 53.9608C94.6227 53.8131 94.4803 53.6062 94.4187 53.3732C94.3571 53.1402 94.3799 52.8944 94.4834 52.675C94.5869 52.4556 94.7653 52.2753 94.99 52.1627C101.343 48.9808 108.778 46.9964 117.093 46.2597C128.314 45.2684 140.894 46.6092 154.484 50.25C154.631 50.2861 154.769 50.3495 154.889 50.4366C155.01 50.5236 155.111 50.6325 155.186 50.7568C155.261 50.8812 155.309 51.0185 155.328 51.1607C155.346 51.3029 155.334 51.4471 155.293 51.5849C155.251 51.7226 155.181 51.8512 155.086 51.963C154.991 52.0748 154.874 52.1677 154.741 52.236C154.607 52.3044 154.461 52.3469 154.31 52.3611C154.159 52.3753 154.006 52.3608 153.862 52.3186C140.545 48.7586 128.246 47.4338 117.306 48.4C109.296 49.1171 102.142 51.0154 96.0589 54.0628C95.8944 54.1448 95.7113 54.1878 95.5254 54.1883Z" fill="#C6EDDB"/>
<path d="M95.5254 67.9395C95.271 67.9398 95.0238 67.8597 94.8232 67.712C94.6227 67.5643 94.4803 67.3574 94.4187 67.1244C94.3571 66.8914 94.3799 66.6456 94.4834 66.4262C94.5869 66.2068 94.7653 66.0265 94.9899 65.9139C101.343 62.7321 108.778 60.7459 117.093 60.0109C128.314 59.0178 140.894 60.3605 154.484 63.9994C154.775 64.0774 155.021 64.2612 155.168 64.5105C155.316 64.7598 155.352 65.0541 155.269 65.3286C155.187 65.6032 154.992 65.8355 154.728 65.9745C154.464 66.1135 154.152 66.1478 153.862 66.0699C140.545 62.5026 128.246 61.1851 117.306 62.153C109.292 62.8611 102.142 64.7666 96.0589 67.814C95.8944 67.896 95.7113 67.939 95.5254 67.9395Z" fill="#C6EDDB"/>
<path d="M95.5253 81.6724C95.2703 81.6735 95.0222 81.5937 94.8209 81.4459C94.6196 81.2981 94.4766 81.0908 94.4149 80.8571C94.3532 80.6235 94.3764 80.377 94.4806 80.1573C94.5849 79.9375 94.7642 79.7571 94.9899 79.645C101.343 76.465 108.777 74.4788 117.093 73.7438C128.314 72.7507 140.894 74.0934 154.484 77.7323C154.628 77.7709 154.763 77.8359 154.88 77.9236C154.997 78.0113 155.095 78.12 155.168 78.2434C155.241 78.3668 155.288 78.5026 155.305 78.643C155.322 78.7834 155.31 78.9256 155.269 79.0615C155.228 79.1975 155.16 79.3245 155.067 79.4353C154.974 79.5461 154.859 79.6386 154.728 79.7074C154.597 79.7763 154.453 79.8201 154.305 79.8365C154.156 79.8528 154.005 79.8414 153.861 79.8028C140.545 76.2355 128.246 74.9162 117.306 75.886C109.292 76.594 102.142 78.4996 96.0588 81.547C95.8943 81.6289 95.7113 81.6719 95.5253 81.6724Z" fill="#C6EDDB"/>
<path d="M95.5254 95.4127C95.271 95.413 95.0238 95.3329 94.8232 95.1852C94.6227 95.0375 94.4803 94.8306 94.4187 94.5976C94.3571 94.3646 94.3799 94.1188 94.4834 93.8994C94.5869 93.68 94.7653 93.4997 94.99 93.3871C101.343 90.207 108.778 88.2208 117.093 87.4841C128.314 86.4928 140.894 87.8426 154.484 91.4744C154.631 91.5105 154.769 91.574 154.889 91.661C155.01 91.748 155.111 91.8569 155.186 91.9813C155.261 92.1056 155.309 92.2429 155.328 92.3851C155.346 92.5273 155.334 92.6715 155.293 92.8093C155.251 92.9471 155.181 93.0756 155.086 93.1874C154.991 93.2993 154.874 93.3921 154.741 93.4604C154.607 93.5288 154.461 93.5713 154.31 93.5855C154.159 93.5997 154.006 93.5853 153.862 93.5431C140.545 89.9758 128.246 88.6582 117.306 89.6262C109.292 90.3433 102.142 92.2398 96.0589 95.2873C95.8947 95.37 95.7114 95.4131 95.5254 95.4127Z" fill="#C6EDDB"/>
<path d="M78.4779 26.7098C78.2919 26.7093 78.1089 26.6663 77.9444 26.5843C72.4916 23.8417 63.1601 20.615 49.5415 20.615H49.1617C48.8596 20.615 48.5699 20.5017 48.3562 20.3C48.1426 20.0983 48.0226 19.8247 48.0226 19.5395C48.0226 19.2542 48.1426 18.9806 48.3562 18.7789C48.5699 18.5772 48.8596 18.4639 49.1617 18.4639C63.4524 18.4047 73.2909 21.8107 79.0247 24.6824C79.2513 24.7949 79.4312 24.9762 79.5353 25.1971C79.6394 25.418 79.6617 25.6655 79.5985 25.8998C79.5353 26.1341 79.3903 26.3414 79.187 26.4884C78.9837 26.6353 78.7339 26.7134 78.4779 26.7098Z" fill="#C6EDDB"/>
<path d="M78.4779 40.4464C78.2918 40.4468 78.1085 40.4037 77.9444 40.3209C72.4916 37.5908 63.1524 34.3516 49.5414 34.3516H49.1617C49.0121 34.3523 48.8638 34.3252 48.7253 34.2718C48.5868 34.2184 48.4608 34.1397 48.3545 34.0404C48.2482 33.941 48.1637 33.8228 48.1058 33.6926C48.0478 33.5624 48.0176 33.4226 48.0169 33.2814C48.0161 33.1402 48.0448 33.0002 48.1014 32.8694C48.1579 32.7386 48.2412 32.6197 48.3465 32.5193C48.4517 32.4189 48.5769 32.3391 48.7148 32.2844C48.8527 32.2297 49.0007 32.2012 49.1503 32.2005C63.441 32.1413 73.2795 35.5472 79.0133 38.419C79.2378 38.5315 79.4161 38.7117 79.5196 38.9309C79.6232 39.1501 79.6461 39.3957 79.5848 39.6286C79.5234 39.8615 79.3813 40.0684 79.1811 40.2163C78.9809 40.3641 78.734 40.4445 78.4798 40.4446L78.4779 40.4464Z" fill="#C6EDDB"/>
<path d="M78.4779 54.1883C78.2918 54.1887 78.1085 54.1456 77.9444 54.0628C72.4916 51.3327 63.1525 48.0935 49.5415 48.0935H49.1617C48.8596 48.0935 48.5699 47.9802 48.3562 47.7785C48.1426 47.5768 48.0226 47.3032 48.0226 47.0179C48.0226 46.7327 48.1426 46.4591 48.3562 46.2574C48.5699 46.0557 48.8596 45.9424 49.1617 45.9424H49.5547C63.6347 45.9424 73.3422 49.316 79.0247 52.1627C79.2492 52.2752 79.4275 52.4554 79.531 52.6746C79.6346 52.8938 79.6575 53.1394 79.5962 53.3723C79.5348 53.6052 79.3927 53.8121 79.1925 53.96C78.9923 54.1078 78.7454 54.1882 78.4912 54.1883H78.4779Z" fill="#C6EDDB"/>
<path d="M78.4779 67.9395C78.2919 67.939 78.1089 67.8959 77.9444 67.814C71.8594 64.7666 64.7112 62.8611 56.6972 62.153C45.7575 61.185 33.4584 62.5025 20.1417 66.0698C19.9975 66.1084 19.8466 66.1198 19.6977 66.1034C19.5488 66.0869 19.4048 66.0429 19.2739 65.9739C19.143 65.9049 19.0277 65.8123 18.9348 65.7012C18.8418 65.5902 18.7729 65.4629 18.732 65.3268C18.6911 65.1906 18.679 65.0481 18.6965 64.9075C18.7139 64.767 18.7605 64.631 18.8335 64.5074C18.9066 64.3838 19.0047 64.275 19.1224 64.1872C19.24 64.0994 19.3747 64.0344 19.519 63.9958C33.1072 60.3568 45.6873 59.0141 56.9099 60.0072C65.2238 60.7422 72.6682 62.7284 79.0114 65.9103C79.2359 66.0228 79.4142 66.203 79.5177 66.4222C79.6213 66.6414 79.6442 66.887 79.5829 67.1199C79.5215 67.3528 79.3795 67.5597 79.1792 67.7075C78.979 67.8554 78.7321 67.9358 78.4779 67.9359V67.9395Z" fill="#C6EDDB"/>
<path d="M78.4779 81.6724C78.2919 81.6719 78.1088 81.6289 77.9444 81.547C71.8594 78.4996 64.7112 76.594 56.6972 75.886C45.7556 74.918 33.4584 76.2355 20.1417 79.8028C19.8509 79.8807 19.5392 79.8464 19.2752 79.7074C19.0112 79.5684 18.8165 79.3361 18.7339 79.0615C18.6513 78.787 18.6876 78.4927 18.8349 78.2434C18.9821 77.9941 19.2282 77.8103 19.519 77.7323C33.1072 74.0934 45.6873 72.7507 56.9099 73.7438C65.2238 74.4788 72.6682 76.465 79.0114 79.645C79.2369 79.7571 79.4162 79.9373 79.5205 80.1569C79.6247 80.3764 79.648 80.6227 79.5865 80.8562C79.5251 81.0898 79.3825 81.2971 79.1815 81.4451C78.9805 81.593 78.7327 81.6731 78.4779 81.6724Z" fill="#C6EDDB"/>
<path d="M78.4779 95.4127C78.2918 95.4131 78.1085 95.37 77.9443 95.2873C71.8594 92.2399 64.7111 90.3361 56.6972 89.6263C45.7556 88.6583 33.4584 89.9758 20.1417 93.5431C19.9967 93.5853 19.8443 93.5997 19.6933 93.5855C19.5423 93.5713 19.3959 93.5288 19.2626 93.4604C19.1292 93.3921 19.0117 93.2993 18.9169 93.1875C18.8221 93.0756 18.7519 92.9471 18.7104 92.8093C18.6689 92.6715 18.657 92.5273 18.6754 92.3851C18.6937 92.2429 18.742 92.1056 18.8173 91.9813C18.8926 91.8569 18.9935 91.748 19.1139 91.661C19.2344 91.574 19.3721 91.5105 19.5189 91.4744C33.1072 87.8372 45.6929 86.4928 56.9098 87.4787C65.2238 88.2155 72.6682 90.2017 79.0114 93.3817C79.2359 93.4942 79.4142 93.6744 79.5177 93.8936C79.6213 94.1128 79.6442 94.3584 79.5829 94.5914C79.5215 94.8243 79.3794 95.0312 79.1792 95.179C78.9789 95.3269 78.7321 95.4073 78.4779 95.4074V95.4127Z" fill="#C6EDDB"/>
<path d="M19.8303 52.3599C19.5282 52.3599 19.2384 52.2466 19.0248 52.0449C18.8112 51.8432 18.6912 51.5696 18.6912 51.2843V23.8003C18.6912 23.5664 18.7721 23.3388 18.9215 23.1522C19.0708 22.9655 19.2806 22.8299 19.5189 22.766C27.0108 20.7601 34.2672 19.4389 41.0889 18.8402C41.247 18.8265 41.4064 18.8441 41.5569 18.892C41.7074 18.9398 41.8457 19.0169 41.9628 19.1181C42.0799 19.2194 42.1732 19.3427 42.2369 19.4801C42.3006 19.6174 42.3331 19.7658 42.3324 19.9158V47.3944C42.3337 47.6631 42.2284 47.9225 42.0372 48.1216C41.8461 48.3206 41.5829 48.4449 41.2996 48.47C34.6204 49.0562 27.5006 50.3522 20.1417 52.3241C20.0401 52.3492 19.9353 52.3613 19.8303 52.3599ZM20.9695 24.616V49.8682C27.2222 48.2368 33.6046 47.0864 40.0541 46.4282V21.0989C33.6014 21.7766 27.2185 22.9529 20.9695 24.616Z" fill="#C6EDDB"/>
<path d="M76.3021 7.43752C76.1318 7.43739 75.9638 7.40125 75.8103 7.33175C65.9604 2.87716 48.5408 -0.984085 21.4403 5.9156C21.2942 5.95791 21.1405 5.97201 20.9884 5.95705C20.8363 5.94209 20.689 5.89839 20.5552 5.82854C20.4214 5.7587 20.3039 5.66414 20.2096 5.5505C20.1154 5.43686 20.0463 5.30647 20.0065 5.16709C19.9667 5.02772 19.9571 4.88221 19.9781 4.73923C19.9992 4.59626 20.0505 4.45875 20.129 4.33489C20.2075 4.21104 20.3116 4.10337 20.4352 4.01831C20.5587 3.93325 20.6991 3.87253 20.848 3.83978C48.613 -3.2302 66.6041 0.792375 76.7957 5.39575C77.0286 5.50122 77.2166 5.67829 77.329 5.89793C77.4413 6.11756 77.4712 6.36671 77.4138 6.60451C77.3564 6.8423 77.2151 7.05462 77.0131 7.20663C76.8111 7.35864 76.5604 7.44132 76.3021 7.4411V7.43752Z" fill="#C6EDDB"/>
<path d="M153.696 6.41755C153.591 6.41794 153.486 6.40406 153.385 6.37632C139.472 2.65132 126.691 1.38037 115.39 2.60112C115.24 2.62035 115.087 2.61106 114.941 2.5738C114.794 2.53655 114.657 2.47207 114.538 2.38416C114.418 2.29625 114.318 2.18667 114.244 2.06185C114.17 1.93702 114.123 1.79946 114.105 1.65723C114.088 1.515 114.101 1.37097 114.144 1.23356C114.186 1.09616 114.258 0.968155 114.353 0.857055C114.449 0.745954 114.567 0.653992 114.701 0.586559C114.834 0.519126 114.981 0.477579 115.132 0.464354C126.727 -0.790461 139.814 0.503791 154.006 4.30767C154.27 4.37875 154.498 4.53748 154.648 4.75464C154.798 4.97179 154.859 5.23277 154.822 5.48954C154.784 5.74632 154.649 5.98161 154.443 6.15212C154.236 6.32264 153.971 6.41689 153.696 6.41755Z" fill="#C6EDDB"/>
</svg>
