<svg width="72" height="73" viewBox="0 0 72 73" fill="none" xmlns="http://www.w3.org/2000/svg">
<g clip-path="url(#clip0_395_2832)">
<path d="M58.28 13.56C58.0866 13.552 57.899 13.491 57.7377 13.3839C57.5765 13.2768 57.4476 13.1275 57.3652 12.9523C57.2827 12.7771 57.2498 12.5827 57.2701 12.3901C57.2903 12.1976 57.3629 12.0143 57.48 11.86L65.68 2.66004C65.8621 2.47746 66.1041 2.3668 66.3613 2.34842C66.6185 2.33005 66.8738 2.4052 67.08 2.56004C67.2626 2.74217 67.3732 2.98412 67.3916 3.24136C67.41 3.49859 67.3348 3.75381 67.18 3.96004L58.98 13.16C58.8975 13.2716 58.7926 13.3648 58.6721 13.4337C58.5516 13.5026 58.418 13.5456 58.28 13.56Z" fill="#008BAD"/>
<path d="M54.78 9.75998C54.64 9.76414 54.5016 9.72954 54.38 9.65998C54.2543 9.61542 54.1387 9.54615 54.0401 9.45624C53.9415 9.36632 53.8619 9.25759 53.806 9.13645C53.7501 9.0153 53.719 8.88419 53.7145 8.75084C53.7101 8.61749 53.7324 8.48459 53.78 8.35998L56.78 0.659982C56.8729 0.408026 57.062 0.203265 57.3058 0.0907429C57.5496 -0.0217789 57.8281 -0.0328441 58.08 0.0599817C58.332 0.152807 58.5368 0.34192 58.6493 0.585718C58.7618 0.829515 58.7729 1.10803 58.68 1.35998L55.68 9.05998C55.6113 9.24964 55.4903 9.41599 55.331 9.53984C55.1718 9.6637 54.9808 9.74001 54.78 9.75998Z" fill="#008BAD"/>
<path d="M9.87998 20.6601C9.74856 20.6636 9.61793 20.6386 9.49709 20.5868C9.37625 20.535 9.26806 20.4577 9.17998 20.3601L1.37998 12.3601C1.26536 12.2741 1.17056 12.1645 1.10198 12.0387C1.0334 11.9129 0.992653 11.7739 0.982496 11.6309C0.97234 11.488 0.993011 11.3446 1.04311 11.2104C1.09321 11.0762 1.17157 10.9543 1.27287 10.853C1.37418 10.7516 1.49608 10.6733 1.6303 10.6232C1.76453 10.5731 1.90796 10.5524 2.05087 10.5626C2.19378 10.5727 2.33284 10.6135 2.45864 10.6821C2.58443 10.7506 2.69402 10.8454 2.77998 10.9601L10.58 18.9601C10.7632 19.147 10.8658 19.3983 10.8658 19.6601C10.8658 19.9218 10.7632 20.1731 10.58 20.3601C10.4919 20.4577 10.3837 20.535 10.2629 20.5868C10.142 20.6386 10.0114 20.6636 9.87998 20.6601Z" fill="#008BAD"/>
<path d="M7.68003 24.5601C7.53907 24.575 7.39736 24.5396 7.28003 24.4601L0.580029 21.2601C0.384911 21.1288 0.242311 20.9329 0.177287 20.7069C0.112264 20.4809 0.128979 20.2392 0.224495 20.0243C0.32001 19.8094 0.488215 19.635 0.699549 19.5318C0.910883 19.4286 1.15182 19.4032 1.38003 19.4601L8.08003 22.6601C8.31603 22.7692 8.50023 22.966 8.59357 23.2087C8.68692 23.4514 8.68206 23.7209 8.58003 23.9601C8.50334 24.1359 8.37773 24.2859 8.21815 24.3923C8.05858 24.4986 7.87178 24.5569 7.68003 24.5601Z" fill="#008BAD"/>
<path d="M70.58 22.86C69.9596 22.2849 69.1952 21.8884 68.3678 21.7123C67.5404 21.5363 66.6807 21.5873 65.88 21.86C65.0472 22.1189 64.309 22.6174 63.7577 23.2932C63.2064 23.969 62.8664 24.7921 62.78 25.66L60.58 35.16C60.5374 35.2636 60.4692 35.3547 60.3817 35.4247C60.2943 35.4947 60.1904 35.5412 60.08 35.56C59.963 35.5633 59.847 35.5377 59.7423 35.4853C59.6376 35.433 59.5475 35.3556 59.48 35.26L57.68 31.06L58.28 30.06C58.6156 29.5284 58.8431 28.9358 58.9494 28.3161C59.0556 27.6964 59.0386 27.0619 58.8993 26.4488C58.7599 25.8357 58.501 25.2561 58.1374 24.7433C57.7737 24.2304 57.3124 23.7943 56.78 23.46C55.9831 22.9109 55.0469 22.5988 54.08 22.56L52.38 18.46C52.4464 17.5078 52.2006 16.56 51.68 15.76C51.3766 15.3359 51.0424 14.9348 50.68 14.56L46.38 3.45999C45.38 1.05999 43.58 -0.0400058 41.68 0.759994C40.8039 1.08181 40.0859 1.72957 39.676 2.56806C39.2661 3.40655 39.1959 4.37096 39.48 5.25999L42.88 15.26C42.7581 15.4125 42.6572 15.5807 42.58 15.76L40.78 18.86L39.98 17.26C40.16 16.0374 39.9222 14.7899 39.3052 13.7192C38.6882 12.6485 37.728 11.8173 36.58 11.36L32.58 4.35999C32.3262 3.80113 31.9189 3.32584 31.4055 2.98947C30.8921 2.6531 30.2937 2.46948 29.68 2.45999C29.0245 2.46668 28.3808 2.63433 27.8054 2.9482C27.2299 3.26208 26.7404 3.71255 26.38 4.25999C26.0951 4.76719 25.9539 5.34244 25.9715 5.92389C25.9892 6.50533 26.1649 7.07098 26.48 7.55999L29.98 13.96C29.7934 14.283 29.6264 14.6169 29.48 14.96L28.18 18.16L25.38 14.46C23.68 12.26 21.68 12.36 20.48 13.26C19.8069 13.674 19.3244 14.3368 19.1372 15.1044C18.9499 15.8721 19.0731 16.6826 19.48 17.36L25.08 25.76L22.98 30.76L19.28 27.66C17.58 26.26 15.98 26.56 15.08 27.46C14.8361 27.7156 14.6451 28.0168 14.518 28.3465C14.391 28.6761 14.3304 29.0276 14.3397 29.3808C14.349 29.7339 14.428 30.0818 14.5722 30.4043C14.7164 30.7268 14.923 31.0176 15.18 31.26C15.38 31.46 17.88 33.56 20.68 36.26L18.98 40.36L17.98 36.06C17.7786 34.8936 17.2759 33.8002 16.5216 32.8881C15.7674 31.9759 14.7878 31.2768 13.68 30.86C12.5845 30.5079 11.4154 30.4519 10.2914 30.6978C9.16731 30.9437 8.12834 31.4827 7.27997 32.26C6.38026 33.1786 5.7469 34.3243 5.44749 35.5748C5.14808 36.8252 5.19387 38.1335 5.57997 39.36C5.87997 40.46 6.17997 41.76 6.47997 42.96C8.27997 50.36 10.38 58.66 14.08 64.56C17.08 69.26 22.98 72.66 27.98 72.66C28.5485 72.6796 29.1176 72.6461 29.68 72.56C34.18 71.76 39.58 69.66 45.88 61.06C46.8009 61.3402 47.7355 61.5739 48.68 61.76C49.1754 61.843 49.6779 61.8765 50.18 61.86C54.68 61.86 60.28 58.66 63.08 54.26C66.88 48.26 68.98 39.56 70.88 31.96L70.98 31.46C71.28 30.26 71.58 29.16 71.78 28.16C72.0684 27.2496 72.1092 26.2788 71.8983 25.3474C71.6874 24.4159 71.2324 23.5574 70.58 22.86ZM59.98 41.36C58.98 42.26 48.98 51.06 46.28 55.06C45.08 56.96 43.98 58.66 42.88 60.06C42.58 60.46 42.18 60.86 41.88 61.26C41.88 61.2865 41.8694 61.312 41.8507 61.3307C41.8319 61.3495 41.8065 61.36 41.78 61.36C40.3946 63.098 38.818 64.6746 37.08 66.06C36.78 66.26 36.58 66.46 36.28 66.66L36.18 66.76C35.937 66.9619 35.6679 67.1301 35.38 67.26C35.3535 67.26 35.328 67.2705 35.3093 67.2893C35.2905 67.308 35.28 67.3335 35.28 67.36C34.5448 67.8177 33.7759 68.2188 32.98 68.56C32.9535 68.56 32.928 68.5705 32.9093 68.5893C32.8905 68.608 32.88 68.6335 32.88 68.66C32.68 68.76 32.48 68.76 32.28 68.86C32.08 68.96 32.08 68.96 31.98 68.96C31.88 68.96 31.68 69.06 31.48 69.16C31.28 69.26 31.18 69.26 31.08 69.26C30.98 69.26 30.78 69.36 30.68 69.36C30.58 69.36 30.38 69.46 30.18 69.46C29.98 69.46 29.98 69.56 29.88 69.56C29.58 69.66 29.28 69.66 29.08 69.76C24.98 70.46 19.28 67.46 16.58 63.16C13.08 57.66 11.08 49.56 9.37997 42.46C9.07997 41.26 8.77997 39.96 8.47997 38.86C7.97997 37.06 8.27997 35.56 9.27997 34.66C9.93249 34.0593 10.7934 33.7365 11.68 33.76C12.0538 33.7779 12.4237 33.8452 12.78 33.96C13.3936 34.1841 13.9332 34.5736 14.3392 35.0854C14.7451 35.5973 15.0015 36.2115 15.08 36.86L17.08 45.76C17.1558 46.0651 17.3194 46.3413 17.5504 46.5546C17.7814 46.7678 18.0698 46.9087 18.38 46.96C18.6937 46.9921 19.0093 46.9217 19.2797 46.7595C19.5501 46.5973 19.7607 46.3519 19.88 46.06L26.68 29.66L26.98 28.86L30.28 20.96L30.98 19.26L32.28 16.06C32.98 14.26 34.18 13.56 35.48 14.06C36.0738 14.263 36.564 14.6914 36.8446 15.2527C37.1253 15.814 37.1739 16.4631 36.98 17.06L30.48 35.96L30.18 36.76L29.88 37.66C29.7594 38.0198 29.7741 38.4112 29.9214 38.761C30.0687 39.1107 30.3384 39.3948 30.68 39.56C31.0138 39.7192 31.3956 39.7458 31.7482 39.6345C32.1009 39.5231 32.3982 39.2821 32.58 38.96L37.48 30.46L38.08 29.46L43.88 19.46L44.18 18.96L45.28 17.16C45.4333 16.8084 45.6846 16.5084 46.0037 16.2956C46.3229 16.0829 46.6965 15.9664 47.08 15.96C47.5179 15.9594 47.949 16.069 48.3334 16.2787C48.7179 16.4884 49.0434 16.7915 49.28 17.16C49.4601 17.5026 49.5458 17.8869 49.5282 18.2736C49.5106 18.6602 49.3904 19.0352 49.18 19.36L46.18 24.86L45.58 25.86L37.28 41.06C37.108 41.3901 37.0659 41.7726 37.1618 42.1323C37.2577 42.4919 37.4848 42.8026 37.7983 43.0032C38.1118 43.2039 38.489 43.2799 38.8558 43.2164C39.2225 43.1529 39.5522 42.9544 39.78 42.66L51.78 26.86C52.78 25.56 53.98 25.16 55.08 25.96C55.2916 26.0766 55.4779 26.2343 55.628 26.4237C55.7781 26.6131 55.889 26.8305 55.9541 27.0632C56.0193 27.296 56.0374 27.5393 56.0075 27.7791C55.9776 28.0189 55.9003 28.2504 55.78 28.46L43.18 47.46C42.9873 47.7506 42.9019 48.0992 42.9384 48.446C42.9749 48.7927 43.131 49.1159 43.38 49.36C43.6674 49.579 44.0187 49.6976 44.38 49.6976C44.7413 49.6976 45.0926 49.579 45.38 49.36L57.38 39.36C58.58 38.36 59.48 38.56 60.08 39.16C60.2281 39.3057 60.3438 39.4809 60.4197 39.6742C60.4957 39.8676 60.53 40.0748 60.5206 40.2823C60.5111 40.4898 60.4581 40.693 60.365 40.8787C60.2719 41.0644 60.1407 41.2284 59.98 41.36Z" fill="#008BAD"/>
</g>
<defs>
<clipPath id="clip0_395_2832">
<rect width="71.98" height="72.66" fill="white"/>
</clipPath>
</defs>
</svg>
