<svg width="129" height="13" viewBox="0 0 129 13" fill="none" xmlns="http://www.w3.org/2000/svg">
<path d="M0.328 0.799999H2.92V9.888H8.536V12H0.328V0.799999ZM18.6562 9.92V12H9.98425V0.799999H18.4483V2.88H12.5603V5.312H17.7603V7.328H12.5603V9.92H18.6562ZM28.0946 9.6H22.8946L21.9026 12H19.2466L24.2386 0.799999H26.7986L31.8066 12H29.0866L28.0946 9.6ZM27.2786 7.632L25.5026 3.344L23.7266 7.632H27.2786ZM40.1046 12L37.9446 8.88H37.8166H35.5606V12H32.9686V0.799999H37.8166C38.8086 0.799999 39.6673 0.965333 40.3926 1.296C41.1286 1.62667 41.694 2.096 42.0886 2.704C42.4833 3.312 42.6806 4.032 42.6806 4.864C42.6806 5.696 42.478 6.416 42.0726 7.024C41.678 7.62133 41.1126 8.08 40.3766 8.4L42.8886 12H40.1046ZM40.0566 4.864C40.0566 4.23467 39.854 3.75467 39.4486 3.424C39.0433 3.08267 38.4513 2.912 37.6726 2.912H35.5606V6.816H37.6726C38.4513 6.816 39.0433 6.64533 39.4486 6.304C39.854 5.96267 40.0566 5.48267 40.0566 4.864ZM55.0063 0.799999V12H52.8783L47.2943 5.2V12H44.7343V0.799999H46.8783L52.4462 7.6V0.799999H55.0063ZM57.6561 0.799999H60.2481V12H57.6561V0.799999ZM73.1781 0.799999V12H71.0501L65.4661 5.2V12H62.9061V0.799999H65.0501L70.6181 7.6V0.799999H73.1781ZM83.396 6.224H85.764V10.768C85.156 11.2267 84.452 11.5787 83.652 11.824C82.852 12.0693 82.0467 12.192 81.236 12.192C80.0733 12.192 79.028 11.9467 78.1 11.456C77.172 10.9547 76.4413 10.2667 75.908 9.392C75.3853 8.50667 75.124 7.50933 75.124 6.4C75.124 5.29067 75.3853 4.29867 75.908 3.424C76.4413 2.53867 77.1773 1.85067 78.116 1.36C79.0547 0.858666 80.1107 0.608 81.284 0.608C82.2653 0.608 83.156 0.773333 83.956 1.104C84.756 1.43467 85.428 1.91467 85.972 2.544L84.308 4.08C83.508 3.23733 82.5427 2.816 81.412 2.816C80.6973 2.816 80.0627 2.96533 79.508 3.264C78.9533 3.56267 78.5213 3.984 78.212 4.528C77.9027 5.072 77.748 5.696 77.748 6.4C77.748 7.09333 77.9027 7.712 78.212 8.256C78.5213 8.8 78.948 9.22667 79.492 9.536C80.0467 9.83467 80.676 9.984 81.38 9.984C82.1267 9.984 82.7987 9.824 83.396 9.504V6.224ZM102.975 0.799999V12H100.383V7.408H95.295V12H92.703V0.799999H95.295V5.216H100.383V0.799999H102.975ZM110.601 12.192C109.001 12.192 107.753 11.7493 106.857 10.864C105.972 9.97867 105.529 8.71467 105.529 7.072V0.799999H108.121V6.976C108.121 8.98133 108.953 9.984 110.617 9.984C111.428 9.984 112.046 9.744 112.473 9.264C112.9 8.77333 113.113 8.01067 113.113 6.976V0.799999H115.673V7.072C115.673 8.71467 115.225 9.97867 114.329 10.864C113.444 11.7493 112.201 12.192 110.601 12.192ZM126.458 6.176C127.098 6.37867 127.6 6.72 127.962 7.2C128.325 7.66933 128.506 8.25067 128.506 8.944C128.506 9.92533 128.122 10.6827 127.354 11.216C126.597 11.7387 125.488 12 124.026 12H118.234V0.799999H123.706C125.072 0.799999 126.117 1.06133 126.842 1.584C127.578 2.10667 127.946 2.816 127.946 3.712C127.946 4.256 127.813 4.74133 127.546 5.168C127.29 5.59467 126.928 5.93067 126.458 6.176ZM120.81 2.752V5.392H123.386C124.026 5.392 124.512 5.28 124.842 5.056C125.173 4.832 125.338 4.50133 125.338 4.064C125.338 3.62667 125.173 3.30133 124.842 3.088C124.512 2.864 124.026 2.752 123.386 2.752H120.81ZM123.834 10.048C124.517 10.048 125.029 9.936 125.37 9.712C125.722 9.488 125.898 9.14133 125.898 8.672C125.898 7.744 125.21 7.28 123.834 7.28H120.81V10.048H123.834Z" fill="white"/>
</svg>
