<svg width="21" height="24" viewBox="0 0 21 24" fill="none" xmlns="http://www.w3.org/2000/svg">
<path d="M8.43987 18.3921C7.10903 18.3921 6.03089 19.5224 6.03089 20.9078C6.03089 22.2975 7.11324 23.4234 8.43987 23.4234C9.7665 23.4234 10.8489 22.2931 10.8489 20.9078C10.8489 19.5224 9.7665 18.3921 8.43987 18.3921ZM16.8755 18.3921C15.5447 18.3921 14.4665 19.5224 14.4665 20.9078C14.4665 22.2975 15.5489 23.4234 16.8755 23.4234C18.2064 23.4234 19.2845 22.2931 19.2845 20.9078C19.2887 19.5224 18.2064 18.3921 16.8755 18.3921ZM19.9373 3.87449C19.6341 3.50066 19.175 3.28956 18.6823 3.28956L3.92513 3.28956L3.80721 2.53751C3.64717 1.54797 2.77117 0.769531 1.80674 0.769531L0.602246 0.769531C0.269537 0.769531 -4.76697e-10 1.051 -1.06512e-09 1.39844C-1.65354e-09 1.74588 0.269537 2.02735 0.602246 2.02735L1.80674 2.02735C2.17735 2.02735 2.55639 2.36159 2.61535 2.74421L4.62845 15.3663C4.78428 16.3559 5.66448 17.1343 6.62892 17.1343L18.6823 17.1343C19.015 17.1343 19.2845 16.8528 19.2845 16.5054C19.2845 16.158 19.015 15.8765 18.6823 15.8765L6.62892 15.8765C6.25831 15.8765 5.87927 15.5423 5.82031 15.1596L5.52129 13.2949L17.5367 12.2042C18.4717 12.1206 19.3224 11.2982 19.4782 10.3307L20.2869 5.26424C20.3669 4.75408 20.2405 4.24391 19.9373 3.87449Z" fill="#008BAD"/>
</svg>
